<svg width="100" height="161" viewBox="0 0 100 161" fill="none" xmlns="http://www.w3.org/2000/svg">
<path d="M71.6895 130.377C71.7578 131.598 72.0459 132.589 72.5537 133.351C73.5205 134.776 75.2246 135.489 77.666 135.489C78.7598 135.489 79.7559 135.333 80.6543 135.021C82.3926 134.415 83.2617 133.331 83.2617 131.769C83.2617 130.597 82.8955 129.762 82.1631 129.264C81.4209 128.775 80.2588 128.351 78.6768 127.989L75.7617 127.33C73.8574 126.9 72.5098 126.427 71.7188 125.909C70.3516 125.011 69.668 123.668 69.668 121.881C69.668 119.947 70.3369 118.36 71.6748 117.12C73.0127 115.88 74.9072 115.26 77.3584 115.26C79.6143 115.26 81.5283 115.807 83.1006 116.9C84.6826 117.984 85.4736 119.723 85.4736 122.115H82.7344C82.5879 120.963 82.2754 120.079 81.7969 119.464C80.9082 118.341 79.3994 117.779 77.2705 117.779C75.5518 117.779 74.3164 118.141 73.5645 118.863C72.8125 119.586 72.4365 120.426 72.4365 121.383C72.4365 122.438 72.876 123.209 73.7549 123.697C74.3311 124.01 75.6348 124.4 77.666 124.869L80.6836 125.558C82.1387 125.89 83.2617 126.344 84.0527 126.92C85.4199 127.926 86.1035 129.386 86.1035 131.3C86.1035 133.683 85.2344 135.387 83.4961 136.412C81.7676 137.438 79.7559 137.95 77.4609 137.95C74.7852 137.95 72.6904 137.267 71.1768 135.899C69.6631 134.542 68.9209 132.701 68.9502 130.377H71.6895Z" fill="#4F4F4F"/>
<path d="M57.9551 154.08C57.987 154.65 58.1214 155.112 58.3584 155.468C58.8096 156.133 59.6048 156.466 60.7441 156.466C61.2546 156.466 61.7194 156.393 62.1387 156.247C62.9499 155.965 63.3555 155.459 63.3555 154.729C63.3555 154.183 63.1846 153.793 62.8428 153.561C62.4964 153.333 61.9541 153.134 61.2158 152.966L59.8555 152.658C58.9668 152.458 58.3379 152.237 57.9688 151.995C57.3307 151.576 57.0117 150.949 57.0117 150.115C57.0117 149.213 57.3239 148.472 57.9482 147.894C58.5726 147.315 59.4567 147.025 60.6006 147.025C61.6533 147.025 62.5465 147.281 63.2803 147.791C64.0186 148.297 64.3877 149.108 64.3877 150.225H63.1094C63.041 149.687 62.8952 149.274 62.6719 148.987C62.2572 148.463 61.5531 148.201 60.5596 148.201C59.7575 148.201 59.181 148.37 58.8301 148.707C58.4792 149.044 58.3037 149.436 58.3037 149.883C58.3037 150.375 58.5088 150.735 58.9189 150.963C59.1878 151.109 59.7962 151.291 60.7441 151.51L62.1523 151.831C62.8314 151.986 63.3555 152.198 63.7246 152.467C64.3626 152.936 64.6816 153.618 64.6816 154.511C64.6816 155.623 64.276 156.418 63.4648 156.896C62.6582 157.375 61.7194 157.614 60.6484 157.614C59.3997 157.614 58.4222 157.295 57.7158 156.657C57.0094 156.024 56.6631 155.165 56.6768 154.08H57.9551ZM66.4385 147.278H67.8125V151.428H73.0352V147.278H74.4092V157.32H73.0352V152.624H67.8125V157.32H66.4385V147.278ZM80.8555 147.005C82.6283 147.005 83.9408 147.575 84.793 148.714C85.4583 149.603 85.791 150.74 85.791 152.125C85.791 153.624 85.4105 154.871 84.6494 155.864C83.7562 157.031 82.4824 157.614 80.8281 157.614C79.2832 157.614 78.0687 157.104 77.1846 156.083C76.3962 155.099 76.002 153.854 76.002 152.351C76.002 150.993 76.3392 149.83 77.0137 148.864C77.8796 147.625 79.1602 147.005 80.8555 147.005ZM80.9922 156.397C82.1908 156.397 83.0566 155.969 83.5898 155.112C84.1276 154.251 84.3965 153.262 84.3965 152.146C84.3965 150.965 84.0866 150.015 83.4668 149.295C82.8516 148.575 82.0085 148.215 80.9375 148.215C79.8984 148.215 79.0508 148.573 78.3945 149.288C77.7383 149.999 77.4102 151.049 77.4102 152.439C77.4102 153.551 77.6904 154.49 78.251 155.256C78.8161 156.017 79.7298 156.397 80.9922 156.397ZM88.0811 147.278L89.9746 155.447L92.2441 147.278H93.7207L95.9902 155.447L97.8838 147.278H99.374L96.7354 157.32H95.3066L92.9893 148.994L90.6582 157.32H89.2295L86.6045 147.278H88.0811Z" fill="#4F4F4F"/>
<path d="M3.10059 147.278H4.47461V151.428H9.69727V147.278H11.0713V157.32H9.69727V152.624H4.47461V157.32H3.10059V147.278ZM13.4912 147.278H14.8652V157.32H13.4912V147.278ZM20.9355 156.158C21.3958 156.158 21.7741 156.11 22.0703 156.015C22.599 155.837 23.0319 155.495 23.3691 154.989C23.638 154.584 23.8317 154.064 23.9502 153.431C24.0186 153.052 24.0527 152.701 24.0527 152.378C24.0527 151.134 23.8044 150.168 23.3076 149.479C22.8154 148.791 22.0202 148.447 20.9219 148.447H18.5088V156.158H20.9355ZM17.1416 147.278H21.209C22.5898 147.278 23.6608 147.768 24.4219 148.748C25.1009 149.632 25.4404 150.765 25.4404 152.146C25.4404 153.212 25.2399 154.176 24.8389 155.037C24.1325 156.559 22.918 157.32 21.1953 157.32H17.1416V147.278ZM27.3271 147.278H34.6484V148.509H28.6533V151.558H34.1973V152.72H28.6533V156.124H34.751V157.32H27.3271V147.278Z" fill="#4F4F4F"/>
<path d="M10.3584 115.802H13.3027V124.693H24.4941V115.802H27.4385V137.32H24.4941V127.257H13.3027V137.32H10.3584V115.802Z" fill="#4F4F4F"/>
<path d="M13.5664 92.2783H14.9268V101.124H20.0127V102.32H13.5664V92.2783ZM25.6934 92.0049C27.4661 92.0049 28.7786 92.5745 29.6309 93.7139C30.2962 94.6025 30.6289 95.7396 30.6289 97.125C30.6289 98.6243 30.2484 99.8708 29.4873 100.864C28.5941 102.031 27.3203 102.614 25.666 102.614C24.1211 102.614 22.9066 102.104 22.0225 101.083C21.234 100.099 20.8398 98.8545 20.8398 97.3506C20.8398 95.9925 21.1771 94.8304 21.8516 93.8643C22.7174 92.6247 23.998 92.0049 25.6934 92.0049ZM25.8301 101.397C27.0286 101.397 27.8945 100.969 28.4277 100.112C28.9655 99.251 29.2344 98.262 29.2344 97.1455C29.2344 95.9652 28.9245 95.015 28.3047 94.2949C27.6895 93.5749 26.8464 93.2148 25.7754 93.2148C24.7363 93.2148 23.8887 93.5726 23.2324 94.2881C22.5762 94.999 22.248 96.0495 22.248 97.4395C22.248 98.5514 22.5283 99.4902 23.0889 100.256C23.654 101.017 24.5677 101.397 25.8301 101.397ZM36.4873 92.0049C37.7588 92.0049 38.7454 92.3398 39.4473 93.0098C40.1491 93.6797 40.5387 94.4408 40.6162 95.293H39.29C39.1396 94.6458 38.8389 94.1331 38.3877 93.7549C37.9411 93.3766 37.3122 93.1875 36.501 93.1875C35.512 93.1875 34.7122 93.5361 34.1016 94.2334C33.4954 94.9261 33.1924 95.9902 33.1924 97.4258C33.1924 98.6016 33.4658 99.5563 34.0127 100.29C34.5641 101.019 35.3844 101.384 36.4736 101.384C37.4762 101.384 38.2396 100.999 38.7637 100.229C39.0417 99.8229 39.249 99.2897 39.3857 98.6289H40.7119C40.5934 99.6862 40.2015 100.573 39.5361 101.288C38.7386 102.149 37.6631 102.58 36.3096 102.58C35.1429 102.58 34.1631 102.227 33.3701 101.521C32.3265 100.586 31.8047 99.1439 31.8047 97.1934C31.8047 95.7122 32.1966 94.4977 32.9805 93.5498C33.8281 92.5199 34.9971 92.0049 36.4873 92.0049ZM47.5273 98.2051L46.0029 93.7686L44.3828 98.2051H47.5273ZM45.292 92.2783H46.8301L50.4736 102.32H48.9834L47.9648 99.3125H43.9932L42.9062 102.32H41.5117L45.292 92.2783ZM57.9795 92.2783V93.4746H54.5957V102.32H53.2148V93.4746H49.8311V92.2783H57.9795ZM59.5381 92.2783H60.9121V102.32H59.5381V92.2783ZM67.4609 92.0049C69.2337 92.0049 70.5462 92.5745 71.3984 93.7139C72.0638 94.6025 72.3965 95.7396 72.3965 97.125C72.3965 98.6243 72.016 99.8708 71.2549 100.864C70.3617 102.031 69.0879 102.614 67.4336 102.614C65.8887 102.614 64.6742 102.104 63.79 101.083C63.0016 100.099 62.6074 98.8545 62.6074 97.3506C62.6074 95.9925 62.9447 94.8304 63.6191 93.8643C64.485 92.6247 65.7656 92.0049 67.4609 92.0049ZM67.5977 101.397C68.7962 101.397 69.6621 100.969 70.1953 100.112C70.7331 99.251 71.002 98.262 71.002 97.1455C71.002 95.9652 70.6921 95.015 70.0723 94.2949C69.457 93.5749 68.6139 93.2148 67.543 93.2148C66.5039 93.2148 65.6562 93.5726 65 94.2881C64.3438 94.999 64.0156 96.0495 64.0156 97.4395C64.0156 98.5514 64.2959 99.4902 64.8564 100.256C65.4215 101.017 66.3353 101.397 67.5977 101.397ZM74.0234 92.2783H75.6299L80.7021 100.413V92.2783H81.9941V102.32H80.4697L75.3223 94.1924V102.32H74.0234V92.2783Z" fill="#4F4F4F"/>
<path d="M1.75391 54.3887V53.4453C2.64258 53.3587 3.26237 53.2152 3.61328 53.0146C3.96419 52.8096 4.22624 52.3288 4.39941 51.5723H5.37012V61.3203H4.05762V54.3887H1.75391ZM10.0664 58.9551C10.1029 59.6341 10.3649 60.1035 10.8525 60.3633C11.1032 60.5 11.3857 60.5684 11.7002 60.5684C12.2881 60.5684 12.7894 60.3245 13.2041 59.8369C13.6188 59.3447 13.9128 58.349 14.0859 56.8496C13.8125 57.2826 13.473 57.5879 13.0674 57.7656C12.6663 57.9388 12.2334 58.0254 11.7686 58.0254C10.8252 58.0254 10.0778 57.7314 9.52637 57.1436C8.97949 56.5557 8.70605 55.7992 8.70605 54.874C8.70605 53.9854 8.97721 53.2038 9.51953 52.5293C10.0618 51.8548 10.8617 51.5176 11.9189 51.5176C13.3454 51.5176 14.3298 52.1602 14.8721 53.4453C15.1729 54.1517 15.3232 55.0358 15.3232 56.0977C15.3232 57.2962 15.1432 58.3581 14.7832 59.2832C14.1862 60.8236 13.1745 61.5938 11.748 61.5938C10.791 61.5938 10.0641 61.3431 9.56738 60.8418C9.07064 60.3405 8.82227 59.7116 8.82227 58.9551H10.0664ZM11.9326 56.9453C12.4202 56.9453 12.8646 56.7858 13.2656 56.4668C13.6712 56.1432 13.874 55.5804 13.874 54.7783C13.874 54.0583 13.6917 53.5228 13.3271 53.1719C12.9671 52.8164 12.5068 52.6387 11.9463 52.6387C11.3447 52.6387 10.8662 52.8415 10.5107 53.2471C10.1598 53.6481 9.98438 54.1859 9.98438 54.8604C9.98438 55.4984 10.1393 56.0065 10.4492 56.3848C10.7591 56.7585 11.2536 56.9453 11.9326 56.9453ZM20.6279 57.8545V53.418L17.4902 57.8545H20.6279ZM20.6484 61.3203V58.9277H16.3555V57.7246L20.8398 51.5039H21.8789V57.8545H23.3213V58.9277H21.8789V61.3203H20.6484ZM27.5801 51.5312C28.847 51.5312 29.763 52.0531 30.3281 53.0967C30.7656 53.9033 30.9844 55.0085 30.9844 56.4121C30.9844 57.7428 30.7861 58.8434 30.3896 59.7139C29.8154 60.9626 28.8766 61.5869 27.5732 61.5869C26.3975 61.5869 25.5225 61.0765 24.9482 60.0557C24.4697 59.2035 24.2305 58.0596 24.2305 56.624C24.2305 55.512 24.374 54.5573 24.6611 53.7598C25.1989 52.2741 26.1719 51.5312 27.5801 51.5312ZM27.5664 60.4658C28.2044 60.4658 28.7126 60.1833 29.0908 59.6182C29.4691 59.0531 29.6582 58.0003 29.6582 56.46C29.6582 55.348 29.5215 54.4342 29.248 53.7188C28.9746 52.9987 28.4437 52.6387 27.6553 52.6387C26.9307 52.6387 26.3997 52.9805 26.0625 53.6641C25.7298 54.3431 25.5635 55.3457 25.5635 56.6719C25.5635 57.6699 25.6706 58.472 25.8848 59.0781C26.2129 60.0033 26.7734 60.4658 27.5664 60.4658Z" fill="#4F4F4F"/>
<path d="M33.2197 59.0234C33.2562 59.4336 33.3587 59.748 33.5273 59.9668C33.8372 60.3633 34.375 60.5615 35.1406 60.5615C35.5964 60.5615 35.9974 60.4635 36.3438 60.2676C36.6901 60.0671 36.8633 59.7594 36.8633 59.3447C36.8633 59.0303 36.7243 58.791 36.4463 58.627C36.2686 58.5267 35.9176 58.4105 35.3936 58.2783L34.416 58.0322C33.7917 57.8773 33.3314 57.7041 33.0352 57.5127C32.5065 57.18 32.2422 56.7197 32.2422 56.1318C32.2422 55.4391 32.4906 54.8786 32.9873 54.4502C33.4886 54.0218 34.1608 53.8076 35.0039 53.8076C36.1068 53.8076 36.902 54.1312 37.3896 54.7783C37.695 55.1885 37.8431 55.6305 37.834 56.1045H36.6719C36.6491 55.8265 36.5511 55.5736 36.3779 55.3457C36.0954 55.0221 35.6055 54.8604 34.9082 54.8604C34.4434 54.8604 34.0902 54.9492 33.8486 55.127C33.6117 55.3047 33.4932 55.5394 33.4932 55.8311C33.4932 56.1501 33.6504 56.4053 33.9648 56.5967C34.1471 56.7106 34.416 56.8109 34.7715 56.8975L35.585 57.0957C36.4691 57.3099 37.0615 57.5173 37.3623 57.7178C37.8408 58.0322 38.0801 58.5267 38.0801 59.2012C38.0801 59.8529 37.8317 60.4157 37.335 60.8896C36.8428 61.3636 36.0908 61.6006 35.0791 61.6006C33.9899 61.6006 33.2174 61.3545 32.7617 60.8623C32.3105 60.3656 32.069 59.7526 32.0371 59.0234H33.2197Z" fill="#3F3F3F"/>
<path d="M11 34.6601L26 25.9998L26 43.3203L11 34.6601Z" fill="#4F4F4F"/>
<path d="M62.3516 61.3203C62.3971 60.4772 62.5703 59.7435 62.8711 59.1191C63.1764 58.4948 63.7689 57.9274 64.6484 57.417L65.9609 56.6582C66.5488 56.3164 66.9613 56.0247 67.1982 55.7832C67.5719 55.4049 67.7588 54.972 67.7588 54.4844C67.7588 53.9147 67.5879 53.4635 67.2461 53.1309C66.9043 52.7936 66.4486 52.625 65.8789 52.625C65.0358 52.625 64.4525 52.944 64.1289 53.582C63.9557 53.9238 63.86 54.3978 63.8418 55.0039H62.5908C62.6045 54.1517 62.7617 53.4567 63.0625 52.9189C63.5957 51.971 64.5368 51.4971 65.8857 51.4971C67.0068 51.4971 67.8249 51.8001 68.3398 52.4062C68.8594 53.0124 69.1191 53.6868 69.1191 54.4297C69.1191 55.2135 68.8434 55.8835 68.292 56.4395C67.973 56.763 67.401 57.1549 66.5762 57.6152L65.6396 58.1348C65.193 58.3809 64.8421 58.6156 64.5869 58.8389C64.1312 59.2354 63.8441 59.6751 63.7256 60.1582H69.0713V61.3203H62.3516ZM73.4941 51.5312C74.7611 51.5312 75.6771 52.0531 76.2422 53.0967C76.6797 53.9033 76.8984 55.0085 76.8984 56.4121C76.8984 57.7428 76.7002 58.8434 76.3037 59.7139C75.7295 60.9626 74.7907 61.5869 73.4873 61.5869C72.3115 61.5869 71.4365 61.0765 70.8623 60.0557C70.3838 59.2035 70.1445 58.0596 70.1445 56.624C70.1445 55.512 70.2881 54.5573 70.5752 53.7598C71.113 52.2741 72.0859 51.5312 73.4941 51.5312ZM73.4805 60.4658C74.1185 60.4658 74.6266 60.1833 75.0049 59.6182C75.3831 59.0531 75.5723 58.0003 75.5723 56.46C75.5723 55.348 75.4355 54.4342 75.1621 53.7188C74.8887 52.9987 74.3577 52.6387 73.5693 52.6387C72.8447 52.6387 72.3138 52.9805 71.9766 53.6641C71.6439 54.3431 71.4775 55.3457 71.4775 56.6719C71.4775 57.6699 71.5846 58.472 71.7988 59.0781C72.127 60.0033 72.6875 60.4658 73.4805 60.4658ZM77.9375 61.3203C77.9831 60.4772 78.1562 59.7435 78.457 59.1191C78.7624 58.4948 79.3548 57.9274 80.2344 57.417L81.5469 56.6582C82.1348 56.3164 82.5472 56.0247 82.7842 55.7832C83.1579 55.4049 83.3447 54.972 83.3447 54.4844C83.3447 53.9147 83.1738 53.4635 82.832 53.1309C82.4902 52.7936 82.0345 52.625 81.4648 52.625C80.6217 52.625 80.0384 52.944 79.7148 53.582C79.5417 53.9238 79.446 54.3978 79.4277 55.0039H78.1768C78.1904 54.1517 78.3477 53.4567 78.6484 52.9189C79.1816 51.971 80.1227 51.4971 81.4717 51.4971C82.5928 51.4971 83.4108 51.8001 83.9258 52.4062C84.4453 53.0124 84.7051 53.6868 84.7051 54.4297C84.7051 55.2135 84.4294 55.8835 83.8779 56.4395C83.5589 56.763 82.987 57.1549 82.1621 57.6152L81.2256 58.1348C80.779 58.3809 80.4281 58.6156 80.1729 58.8389C79.7171 59.2354 79.43 59.6751 79.3115 60.1582H84.6572V61.3203H77.9375ZM86.6328 54.3887V53.4453C87.5215 53.3587 88.1413 53.2152 88.4922 53.0146C88.8431 52.8096 89.1051 52.3288 89.2783 51.5723H90.249V61.3203H88.9365V54.3887H86.6328Z" fill="#4F4F4F"/>
<path d="M85 34.6603L70 43.3205L70 26L85 34.6603Z" fill="#4F4F4F"/>
<path d="M39.1465 2.95801V4.1543H35.7627V13H34.3818V4.1543H30.998V2.95801H39.1465ZM40.7051 2.95801H42.0791V13H40.7051V2.95801ZM44.2598 2.95801H46.208L49.0928 11.4482L51.957 2.95801H53.8848V13H52.5928V7.07324C52.5928 6.86816 52.5973 6.52865 52.6064 6.05469C52.6156 5.58073 52.6201 5.07259 52.6201 4.53027L49.7559 13H48.4092L45.5244 4.53027V4.83789C45.5244 5.08398 45.529 5.45996 45.5381 5.96582C45.5518 6.46712 45.5586 6.83626 45.5586 7.07324V13H44.2598V2.95801ZM56.0859 2.95801H63.4072V4.18848H57.4121V7.2373H62.9561V8.39941H57.4121V11.8037H63.5098V13H56.0859V2.95801Z" fill="#4F4F4F"/>
</svg>
