<svg width="1680" height="1050" viewBox="0 0 1680 1050" fill="none" xmlns="http://www.w3.org/2000/svg">
<path d="M25.293 542.83C25.293 548.467 26.8105 553.068 29.8457 556.633C32.8809 560.198 36.735 561.98 41.4082 561.98C45.985 561.98 49.5742 560.27 52.1758 556.85C54.8255 553.381 56.1504 548.9 56.1504 543.408C56.1504 537.29 54.6569 532.617 51.6699 529.389C48.6829 526.113 45.0215 524.475 40.6855 524.475C37.1686 524.475 34.0612 525.535 31.3633 527.654C27.3164 530.786 25.293 535.844 25.293 542.83ZM54.2715 497.592C54.2715 495.906 53.6211 494.051 52.3203 492.027C50.1042 488.751 46.7559 487.113 42.2754 487.113C35.5788 487.113 30.8092 490.871 27.9668 498.387C26.4251 502.53 25.3652 508.648 24.7871 516.742C27.3405 513.707 30.3034 511.491 33.6758 510.094C37.0482 508.697 40.9023 507.998 45.2383 507.998C54.5365 507.998 62.1484 511.154 68.0742 517.465C74.0482 523.776 77.0352 531.846 77.0352 541.674C77.0352 551.454 74.1204 560.077 68.291 567.545C62.4616 575.012 53.4043 578.746 41.1191 578.746C27.9186 578.746 18.1868 573.23 11.9238 562.197C7.05794 553.574 4.625 542.445 4.625 528.811C4.625 520.813 4.96224 514.309 5.63672 509.299C6.84115 500.386 9.17773 492.967 12.6465 487.041C15.6335 481.982 19.5358 477.911 24.3535 474.828C29.2194 471.745 35.0247 470.203 41.7695 470.203C51.5013 470.203 59.2578 472.708 65.0391 477.719C70.8203 482.681 74.0723 489.305 74.7949 497.592H54.2715ZM108.037 524.619C108.037 536.663 109.025 545.889 111 552.297C112.975 558.656 117.022 561.836 123.141 561.836C129.259 561.836 133.258 558.656 135.137 552.297C137.064 545.889 138.027 536.663 138.027 524.619C138.027 511.997 137.064 502.65 135.137 496.58C133.258 490.51 129.259 487.475 123.141 487.475C117.022 487.475 112.975 490.51 111 496.58C109.025 502.65 108.037 511.997 108.037 524.619ZM123.141 470.492C136.486 470.492 145.832 475.189 151.18 484.584C156.576 493.979 159.273 507.324 159.273 524.619C159.273 541.915 156.576 555.236 151.18 564.582C145.832 573.928 136.486 578.602 123.141 578.602C109.796 578.602 100.425 573.928 95.0293 564.582C89.6816 555.236 87.0078 541.915 87.0078 524.619C87.0078 507.324 89.6816 493.979 95.0293 484.584C100.425 475.189 109.796 470.492 123.141 470.492ZM233.346 543.119C234.02 547.985 235.345 551.622 237.32 554.031C240.934 558.415 247.124 560.607 255.893 560.607C261.144 560.607 265.408 560.029 268.684 558.873C274.898 556.657 278.006 552.538 278.006 546.516C278.006 542.999 276.464 540.277 273.381 538.35C270.298 536.471 265.456 534.809 258.855 533.363L247.582 530.834C236.501 528.329 228.841 525.607 224.602 522.668C217.423 517.754 213.834 510.07 213.834 499.615C213.834 490.076 217.303 482.151 224.24 475.84C231.178 469.529 241.367 466.373 254.809 466.373C266.034 466.373 275.597 469.36 283.498 475.334C291.447 481.26 295.615 489.883 296 501.205H274.609C274.224 494.798 271.43 490.245 266.227 487.547C262.758 485.764 258.446 484.873 253.291 484.873C247.558 484.873 242.981 486.029 239.561 488.342C236.14 490.654 234.43 493.882 234.43 498.025C234.43 501.831 236.116 504.674 239.488 506.553C241.656 507.805 246.281 509.275 253.363 510.961L271.719 515.369C279.764 517.296 285.835 519.874 289.93 523.102C296.289 528.112 299.469 535.363 299.469 544.854C299.469 554.585 295.735 562.679 288.268 569.135C280.848 575.542 270.346 578.746 256.76 578.746C242.885 578.746 231.973 575.59 224.023 569.279C216.074 562.92 212.1 554.2 212.1 543.119H233.346ZM375.926 503.373C375.926 497.833 374.456 493.882 371.518 491.521C368.627 489.161 364.556 487.98 359.305 487.98H338.564V519.344H359.305C364.556 519.344 368.627 518.067 371.518 515.514C374.456 512.96 375.926 508.913 375.926 503.373ZM397.967 503.229C397.967 515.803 394.787 524.691 388.428 529.895C382.068 535.098 372.987 537.699 361.184 537.699H338.564V576H316.451V469.48H362.846C373.541 469.48 382.068 472.227 388.428 477.719C394.787 483.211 397.967 491.714 397.967 503.229ZM436.918 487.98V516.598H462.139C467.149 516.598 470.907 516.02 473.412 514.863C477.844 512.84 480.061 508.841 480.061 502.867C480.061 496.411 477.917 492.076 473.629 489.859C471.22 488.607 467.607 487.98 462.789 487.98H436.918ZM467.414 469.48C474.882 469.625 480.615 470.54 484.613 472.227C488.66 473.913 492.081 476.394 494.875 479.67C497.188 482.368 499.018 485.355 500.367 488.631C501.716 491.907 502.391 495.641 502.391 499.832C502.391 504.891 501.114 509.877 498.561 514.791C496.007 519.657 491.792 523.102 485.914 525.125C490.828 527.1 494.297 529.919 496.32 533.58C498.392 537.193 499.428 542.734 499.428 550.201V557.355C499.428 562.221 499.62 565.521 500.006 567.256C500.584 570.002 501.933 572.025 504.053 573.326V576H479.555C478.88 573.639 478.398 571.736 478.109 570.291C477.531 567.304 477.218 564.245 477.17 561.113L477.025 551.213C476.929 544.42 475.676 539.891 473.268 537.627C470.907 535.363 466.451 534.23 459.898 534.23H436.918V576H415.166V469.48H467.414ZM541.992 576H519.879V469.48H541.992V576ZM562.443 469.48H585.785L628.205 543.842V469.48H648.945V576H626.688L583.184 500.338V576H562.443V469.48ZM741.373 502.723C739.687 495.448 735.568 490.365 729.016 487.475C725.354 485.885 721.283 485.09 716.803 485.09C708.227 485.09 701.169 488.342 695.629 494.846C690.137 501.301 687.391 511.033 687.391 524.041C687.391 537.145 690.378 546.419 696.352 551.863C702.326 557.307 709.118 560.029 716.73 560.029C724.198 560.029 730.316 557.885 735.086 553.598C739.855 549.262 742.794 543.601 743.902 536.615H719.26V518.838H763.631V576H748.889L746.648 562.703C742.361 567.762 738.507 571.327 735.086 573.398C729.208 577.012 721.982 578.818 713.406 578.818C699.29 578.818 687.728 573.928 678.719 564.148C669.324 554.32 664.627 540.879 664.627 523.824C664.627 506.577 669.372 492.75 678.863 482.344C688.354 471.938 700.904 466.734 716.514 466.734C730.051 466.734 740.915 470.179 749.105 477.068C757.344 483.91 762.065 492.461 763.27 502.723H741.373ZM842.256 543.119C842.93 547.985 844.255 551.622 846.23 554.031C849.844 558.415 856.035 560.607 864.803 560.607C870.054 560.607 874.318 560.029 877.594 558.873C883.809 556.657 886.916 552.538 886.916 546.516C886.916 542.999 885.374 540.277 882.291 538.35C879.208 536.471 874.366 534.809 867.766 533.363L856.492 530.834C845.411 528.329 837.751 525.607 833.512 522.668C826.333 517.754 822.744 510.07 822.744 499.615C822.744 490.076 826.213 482.151 833.15 475.84C840.088 469.529 850.277 466.373 863.719 466.373C874.944 466.373 884.507 469.36 892.408 475.334C900.357 481.26 904.525 489.883 904.91 501.205H883.52C883.134 494.798 880.34 490.245 875.137 487.547C871.668 485.764 867.356 484.873 862.201 484.873C856.468 484.873 851.891 486.029 848.471 488.342C845.05 490.654 843.34 493.882 843.34 498.025C843.34 501.831 845.026 504.674 848.398 506.553C850.566 507.805 855.191 509.275 862.273 510.961L880.629 515.369C888.674 517.296 894.745 519.874 898.84 523.102C905.199 528.112 908.379 535.363 908.379 544.854C908.379 554.585 904.645 562.679 897.178 569.135C889.758 575.542 879.256 578.746 865.67 578.746C851.795 578.746 840.883 575.59 832.934 569.279C824.984 562.92 821.01 554.2 821.01 543.119H842.256ZM1002.25 469.48V488.342H970.383V576H947.98V488.342H915.967V469.48H1002.25Z" fill="#9B670E"/>
</svg>
