<svg width="1680" height="1050" viewBox="0 0 1680 1050" fill="none" xmlns="http://www.w3.org/2000/svg">
<path d="M78.0469 488.703C74.9635 491.738 70.6758 497.158 65.1836 504.963C59.6914 512.719 55.0905 520.741 51.3809 529.027C48.4421 535.531 45.7923 543.48 43.4316 552.875C41.071 562.27 39.8906 569.978 39.8906 576H18.5C19.1263 557.211 25.293 537.675 37 517.393C44.5638 504.818 50.8991 496.05 56.0059 491.088H3.75781L4.04688 472.588H78.0469V488.703ZM160.43 488.703C157.346 491.738 153.059 497.158 147.566 504.963C142.074 512.719 137.473 520.741 133.764 529.027C130.825 535.531 128.175 543.48 125.814 552.875C123.454 562.27 122.273 569.978 122.273 576H100.883C101.509 557.211 107.676 537.675 119.383 517.393C126.947 504.818 133.282 496.05 138.389 491.088H86.1406L86.4297 472.588H160.43V488.703ZM231.25 545.576C231.25 550.731 232.575 554.73 235.225 557.572C237.923 560.415 241.632 561.836 246.354 561.836C251.075 561.836 254.76 560.415 257.41 557.572C260.108 554.73 261.457 550.731 261.457 545.576C261.457 540.229 260.084 536.182 257.338 533.436C254.64 530.641 250.979 529.244 246.354 529.244C241.729 529.244 238.043 530.641 235.297 533.436C232.599 536.182 231.25 540.229 231.25 545.576ZM209.859 546.949C209.859 541.072 211.184 535.748 213.834 530.979C216.532 526.209 220.458 522.62 225.613 520.211C220.555 516.839 217.255 513.201 215.713 509.299C214.219 505.348 213.473 501.663 213.473 498.242C213.473 490.63 216.339 484.15 222.072 478.803C227.805 473.407 235.899 470.709 246.354 470.709C256.808 470.709 264.902 473.407 270.635 478.803C276.368 484.15 279.234 490.63 279.234 498.242C279.234 501.663 278.464 505.348 276.922 509.299C275.428 513.201 272.152 516.598 267.094 519.488C272.249 522.379 276.127 526.209 278.729 530.979C281.33 535.748 282.631 541.072 282.631 546.949C282.631 555.766 279.355 563.281 272.803 569.496C266.299 575.663 257.193 578.746 245.486 578.746C233.779 578.746 224.915 575.663 218.893 569.496C212.87 563.281 209.859 555.766 209.859 546.949ZM233.129 500.555C233.129 504.361 234.285 507.468 236.598 509.877C238.958 512.286 242.21 513.49 246.354 513.49C250.545 513.49 253.773 512.286 256.037 509.877C258.35 507.468 259.506 504.361 259.506 500.555C259.506 496.411 258.35 493.184 256.037 490.871C253.773 488.51 250.545 487.33 246.354 487.33C242.21 487.33 238.958 488.51 236.598 490.871C234.285 493.184 233.129 496.411 233.129 500.555ZM377.01 469.48V488.342H345.141V576H322.738V488.342H290.725V469.48H377.01ZM389.945 576V469.48H411.986V510.094H453.611V469.48H475.725V576H453.611V528.449H411.986V576H389.945ZM561.865 535.748H588.893L575.596 493.834L561.865 535.748ZM563.238 469.48H588.387L626.109 576H601.973L595.107 554.104H555.867L548.496 576H525.227L563.238 469.48ZM691.076 469.48H714.201L677.852 576H656.822L620.834 469.48H644.609L667.734 550.346L691.076 469.48ZM806.195 488.342H749.828V510.961H801.57V529.461H749.828V556.85H808.797V576H728.076V469.48H806.195V488.342ZM890.963 535.748H917.99L904.693 493.834L890.963 535.748ZM892.336 469.48H917.484L955.207 576H931.07L924.205 554.104H884.965L877.594 576H854.324L892.336 469.48ZM1035.21 469.48V488.342H1003.34V576H980.934V488.342H948.92V469.48H1035.21ZM1088.46 503.734V489.715C1094.97 489.426 1099.52 488.992 1102.12 488.414C1106.27 487.499 1109.64 485.668 1112.24 482.922C1114.02 481.043 1115.37 478.538 1116.29 475.406C1116.82 473.527 1117.08 472.13 1117.08 471.215H1134.21V576H1113.11V503.734H1088.46ZM1237.98 553.453H1226.13V576H1205.97V553.453H1164.49V535.459L1203.01 471.865H1226.13V537.338H1237.98V553.453ZM1205.97 537.338V492.1L1179.74 537.338H1205.97ZM1331.64 469.48V488.342H1299.77V576H1277.37V488.342H1245.35V469.48H1331.64ZM1344.57 576V469.48H1366.62V510.094H1408.24V469.48H1430.35V576H1408.24V528.449H1366.62V576H1344.57ZM1508.98 543.119C1509.65 547.985 1510.98 551.622 1512.95 554.031C1516.57 558.415 1522.76 560.607 1531.53 560.607C1536.78 560.607 1541.04 560.029 1544.32 558.873C1550.53 556.657 1553.64 552.538 1553.64 546.516C1553.64 542.999 1552.1 540.277 1549.01 538.35C1545.93 536.471 1541.09 534.809 1534.49 533.363L1523.21 530.834C1512.13 528.329 1504.47 525.607 1500.23 522.668C1493.06 517.754 1489.47 510.07 1489.47 499.615C1489.47 490.076 1492.94 482.151 1499.87 475.84C1506.81 469.529 1517 466.373 1530.44 466.373C1541.67 466.373 1551.23 469.36 1559.13 475.334C1567.08 481.26 1571.25 489.883 1571.63 501.205H1550.24C1549.86 494.798 1547.06 490.245 1541.86 487.547C1538.39 485.764 1534.08 484.873 1528.92 484.873C1523.19 484.873 1518.61 486.029 1515.19 488.342C1511.77 490.654 1510.06 493.882 1510.06 498.025C1510.06 501.831 1511.75 504.674 1515.12 506.553C1517.29 507.805 1521.91 509.275 1529 510.961L1547.35 515.369C1555.4 517.296 1561.47 519.874 1565.56 523.102C1571.92 528.112 1575.1 535.363 1575.1 544.854C1575.1 554.585 1571.37 562.679 1563.9 569.135C1556.48 575.542 1545.98 578.746 1532.39 578.746C1518.52 578.746 1507.61 575.59 1499.66 569.279C1491.71 562.92 1487.73 554.2 1487.73 543.119H1508.98ZM1668.97 469.48V488.342H1637.11V576H1614.7V488.342H1582.69V469.48H1668.97Z" fill="#9B670E"/>
</svg>
