<svg width="1680" height="1050" viewBox="0 0 1680 1050" fill="none" xmlns="http://www.w3.org/2000/svg">
<path d="M24.4258 107.961C25.2448 112.441 26.8105 115.91 29.123 118.367C31.4355 120.776 34.8079 121.98 39.2402 121.98C44.347 121.98 48.2253 120.198 50.875 116.633C53.5729 113.02 54.9219 108.491 54.9219 103.047C54.9219 97.6992 53.6693 93.1947 51.1641 89.5332C48.6589 85.8236 44.7565 83.9688 39.457 83.9688C36.9518 83.9688 34.7839 84.2819 32.9531 84.9082C29.7253 86.0645 27.2923 88.2083 25.6543 91.3398L7.1543 90.4727L14.5254 32.5879H72.2656V50.0762H29.4121L25.6543 72.9844C28.834 70.9128 31.3151 69.5397 33.0977 68.8652C36.0846 67.7572 39.722 67.2031 44.0098 67.2031C52.6816 67.2031 60.2454 70.1178 66.7012 75.9473C73.1569 81.7767 76.3848 90.2559 76.3848 101.385C76.3848 111.068 73.2773 119.716 67.0625 127.328C60.8477 134.94 51.5495 138.746 39.168 138.746C29.1953 138.746 21.0052 136.072 14.5977 130.725C8.1901 125.377 4.625 117.789 3.90234 107.961H24.4258ZM107.676 102.83C107.676 108.467 109.193 113.068 112.229 116.633C115.264 120.198 119.118 121.98 123.791 121.98C128.368 121.98 131.957 120.27 134.559 116.85C137.208 113.381 138.533 108.9 138.533 103.408C138.533 97.2897 137.04 92.6165 134.053 89.3887C131.066 86.1126 127.404 84.4746 123.068 84.4746C119.551 84.4746 116.444 85.5345 113.746 87.6543C109.699 90.7858 107.676 95.8444 107.676 102.83ZM136.654 57.5918C136.654 55.9056 136.004 54.0508 134.703 52.0273C132.487 48.7513 129.139 47.1133 124.658 47.1133C117.962 47.1133 113.192 50.8711 110.35 58.3867C108.808 62.5299 107.748 68.6484 107.17 76.7422C109.723 73.707 112.686 71.4909 116.059 70.0938C119.431 68.6966 123.285 67.998 127.621 67.998C136.919 67.998 144.531 71.1536 150.457 77.4648C156.431 83.776 159.418 91.8457 159.418 101.674C159.418 111.454 156.503 120.077 150.674 127.545C144.844 135.012 135.787 138.746 123.502 138.746C110.301 138.746 100.57 133.23 94.3066 122.197C89.4408 113.574 87.0078 102.445 87.0078 88.8105C87.0078 80.8132 87.3451 74.3092 88.0195 69.2988C89.224 60.3861 91.5605 52.9668 95.0293 47.041C98.0163 41.9824 101.919 37.9115 106.736 34.8281C111.602 31.7448 117.408 30.2031 124.152 30.2031C133.884 30.2031 141.641 32.7083 147.422 37.7188C153.203 42.681 156.455 49.3053 157.178 57.5918H136.654ZM288.846 62.7227C287.16 55.4479 283.04 50.3652 276.488 47.4746C272.827 45.8848 268.756 45.0898 264.275 45.0898C255.7 45.0898 248.642 48.3418 243.102 54.8457C237.609 61.3014 234.863 71.0332 234.863 84.041C234.863 97.1452 237.85 106.419 243.824 111.863C249.798 117.307 256.591 120.029 264.203 120.029C271.671 120.029 277.789 117.885 282.559 113.598C287.328 109.262 290.267 103.601 291.375 96.6152H266.732V78.8379H311.104V136H296.361L294.121 122.703C289.833 127.762 285.979 131.327 282.559 133.398C276.681 137.012 269.454 138.818 260.879 138.818C246.763 138.818 235.201 133.928 226.191 124.148C216.797 114.32 212.1 100.879 212.1 83.8242C212.1 66.5768 216.845 52.75 226.336 42.3438C235.827 31.9375 248.377 26.7344 263.986 26.7344C277.524 26.7344 288.388 30.179 296.578 37.0684C304.816 43.9095 309.538 52.4609 310.742 62.7227H288.846ZM354.68 47.9805V76.5977H379.9C384.911 76.5977 388.669 76.0195 391.174 74.8633C395.606 72.8398 397.822 68.8411 397.822 62.8672C397.822 56.4115 395.678 52.0755 391.391 49.8594C388.982 48.6068 385.368 47.9805 380.551 47.9805H354.68ZM385.176 29.4805C392.643 29.625 398.376 30.5404 402.375 32.2266C406.422 33.9128 409.842 36.3939 412.637 39.6699C414.949 42.3678 416.78 45.3548 418.129 48.6309C419.478 51.9069 420.152 55.6406 420.152 59.832C420.152 64.8906 418.876 69.877 416.322 74.791C413.769 79.6569 409.553 83.1016 403.676 85.125C408.59 87.1003 412.059 89.9186 414.082 93.5801C416.154 97.1934 417.189 102.734 417.189 110.201V117.355C417.189 122.221 417.382 125.521 417.768 127.256C418.346 130.002 419.695 132.025 421.814 133.326V136H397.316C396.642 133.639 396.16 131.736 395.871 130.291C395.293 127.304 394.98 124.245 394.932 121.113L394.787 111.213C394.691 104.42 393.438 99.8913 391.029 97.627C388.669 95.3626 384.212 94.2305 377.66 94.2305H354.68V136H332.928V29.4805H385.176ZM518.145 48.3418H461.777V70.9609H513.52V89.4609H461.777V116.85H520.746V136H440.025V29.4805H518.145V48.3418ZM616.859 48.3418H560.492V70.9609H612.234V89.4609H560.492V116.85H619.461V136H538.74V29.4805H616.859V48.3418ZM636.443 29.4805H659.785L702.205 103.842V29.4805H722.945V136H700.688L657.184 60.3379V136H636.443V29.4805ZM758.283 29.4805L772.375 90.4727L775.41 107.455L778.518 90.834L790.514 29.4805H814L826.646 90.4727L829.898 107.455L833.15 91.123L847.387 29.4805H870.006L840.016 136H818.77L805.906 73.707L802.148 53.1113L798.391 73.707L785.527 136H764.859L734.652 29.4805H758.283ZM903.898 136H881.785V29.4805H903.898V136ZM920.086 83.6074C920.086 65.0111 925.072 50.6784 935.045 40.6094C943.717 31.8411 954.749 27.457 968.143 27.457C986.064 27.457 999.169 33.3346 1007.46 45.0898C1012.03 51.6901 1014.49 58.3145 1014.83 64.9629H992.568C991.123 59.8561 989.268 56.002 987.004 53.4004C982.957 48.7754 976.959 46.4629 969.01 46.4629C960.916 46.4629 954.533 49.7389 949.859 56.291C945.186 62.7949 942.85 72.0208 942.85 83.9688C942.85 95.9167 945.307 104.878 950.221 110.852C955.183 116.777 961.47 119.74 969.082 119.74C976.887 119.74 982.837 117.187 986.932 112.08C989.196 109.334 991.075 105.215 992.568 99.7227H1014.61C1012.68 111.333 1007.74 120.776 999.795 128.051C991.894 135.326 981.753 138.963 969.371 138.963C954.051 138.963 942.007 134.049 933.238 124.221C924.47 114.344 920.086 100.807 920.086 83.6074ZM1031.52 136V29.4805H1053.56V70.0938H1095.19V29.4805H1117.3V136H1095.19V88.4492H1053.56V136H1031.52ZM1203.44 95.748H1230.47L1217.17 53.834L1203.44 95.748ZM1204.81 29.4805H1229.96L1267.68 136H1243.55L1236.68 114.104H1197.44L1190.07 136H1166.8L1204.81 29.4805ZM1332.65 29.4805H1355.78L1319.43 136H1298.4L1262.41 29.4805H1286.18L1309.31 110.346L1332.65 29.4805ZM1447.77 48.3418H1391.4V70.9609H1443.14V89.4609H1391.4V116.85H1450.37V136H1369.65V29.4805H1447.77V48.3418Z" fill="#333333"/>
</svg>
