<svg width="1680" height="1050" viewBox="0 0 1680 1050" fill="none" xmlns="http://www.w3.org/2000/svg">
<path d="M4.625 136C4.81771 128.484 6.43164 121.619 9.4668 115.404C12.4056 108.419 19.3431 101.023 30.2793 93.2188C39.7702 86.4258 45.9128 81.5599 48.707 78.6211C52.9948 74.0443 55.1387 69.0339 55.1387 63.5898C55.1387 59.1576 53.9102 55.472 51.4531 52.5332C48.9961 49.5944 45.4792 48.125 40.9023 48.125C34.6393 48.125 30.3757 50.4616 28.1113 55.1348C26.8105 57.8327 26.0397 62.1204 25.7988 67.998H5.78125C6.11849 59.0853 7.73242 51.8828 10.623 46.3906C16.1152 35.9362 25.8711 30.709 39.8906 30.709C50.9714 30.709 59.7878 33.7923 66.3398 39.959C72.8919 46.0775 76.168 54.1953 76.168 64.3125C76.168 72.069 73.8555 78.9583 69.2305 84.9805C66.1953 88.9792 61.209 93.4355 54.2715 98.3496L46.0332 104.203C40.8783 107.865 37.3372 110.514 35.4102 112.152C33.5312 113.79 31.9414 115.693 30.6406 117.861H76.3848V136H4.625ZM106.52 103.842C106.52 108.033 107.194 111.502 108.543 114.248C111.048 119.307 115.601 121.836 122.201 121.836C126.248 121.836 129.765 120.463 132.752 117.717C135.787 114.923 137.305 110.924 137.305 105.721C137.305 98.8314 134.51 94.2305 128.922 91.918C125.742 90.6172 120.732 89.9668 113.891 89.9668V75.2246C120.587 75.1283 125.26 74.4779 127.91 73.2734C132.487 71.25 134.775 67.1549 134.775 60.9883C134.775 56.9896 133.595 53.7376 131.234 51.2324C128.922 48.7272 125.646 47.4746 121.406 47.4746C116.54 47.4746 112.951 49.0163 110.639 52.0996C108.374 55.1829 107.29 59.3021 107.387 64.457H88.1641C88.3568 59.2539 89.248 54.3158 90.8379 49.6426C92.5241 45.5475 95.1738 41.7656 98.7871 38.2969C101.485 35.8398 104.689 33.9609 108.398 32.6602C112.108 31.3594 116.661 30.709 122.057 30.709C132.077 30.709 140.147 33.3105 146.266 38.5137C152.432 43.6686 155.516 50.6061 155.516 59.3262C155.516 65.4928 153.685 70.696 150.023 74.9355C147.711 77.5853 145.302 79.3919 142.797 80.3555C144.676 80.3555 147.374 81.9694 150.891 85.1973C156.142 90.0632 158.768 96.7116 158.768 105.143C158.768 114.007 155.684 121.812 149.518 128.557C143.399 135.253 134.318 138.602 122.273 138.602C107.435 138.602 97.125 133.76 91.3438 124.076C88.3086 118.921 86.6224 112.176 86.2852 103.842H106.52ZM189.191 107.961C190.01 112.441 191.576 115.91 193.889 118.367C196.201 120.776 199.574 121.98 204.006 121.98C209.113 121.98 212.991 120.198 215.641 116.633C218.339 113.02 219.688 108.491 219.688 103.047C219.688 97.6992 218.435 93.1947 215.93 89.5332C213.424 85.8236 209.522 83.9688 204.223 83.9688C201.717 83.9688 199.549 84.2819 197.719 84.9082C194.491 86.0645 192.058 88.2083 190.42 91.3398L171.92 90.4727L179.291 32.5879H237.031V50.0762H194.178L190.42 72.9844C193.6 70.9128 196.081 69.5397 197.863 68.8652C200.85 67.7572 204.488 67.2031 208.775 67.2031C217.447 67.2031 225.011 70.1178 231.467 75.9473C237.923 81.7767 241.15 90.2559 241.15 101.385C241.15 111.068 238.043 119.716 231.828 127.328C225.613 134.94 216.315 138.746 203.934 138.746C193.961 138.746 185.771 136.072 179.363 130.725C172.956 125.377 169.391 117.789 168.668 107.961H189.191ZM321.221 47.9805V71.4668H347.381C352.054 71.4668 355.836 70.5996 358.727 68.8652C361.665 67.0827 363.135 63.9512 363.135 59.4707C363.135 54.5085 361.208 51.2324 357.354 49.6426C354.029 48.5345 349.79 47.9805 344.635 47.9805H321.221ZM321.221 89.0996V117.5H347.381C352.054 117.5 355.691 116.874 358.293 115.621C363.014 113.309 365.375 108.876 365.375 102.324C365.375 96.7839 363.087 92.9779 358.51 90.9062C355.956 89.75 352.367 89.1478 347.742 89.0996H321.221ZM351.717 29.4805C364.773 29.6732 374.023 33.4551 379.467 40.8262C382.743 45.3548 384.381 50.7747 384.381 57.0859C384.381 63.5898 382.743 68.8171 379.467 72.7676C377.636 74.9837 374.938 77.0072 371.373 78.8379C376.817 80.8132 380.912 83.9447 383.658 88.2324C386.452 92.5202 387.85 97.7233 387.85 103.842C387.85 110.153 386.26 115.814 383.08 120.824C381.057 124.148 378.527 126.943 375.492 129.207C372.072 131.809 368.025 133.591 363.352 134.555C358.727 135.518 353.692 136 348.248 136H299.975V29.4805H351.717ZM453.684 120.102C462.5 120.102 469.486 116.85 474.641 110.346C479.844 103.842 482.445 94.5918 482.445 82.5957C482.445 70.6478 479.844 61.4219 474.641 54.918C469.486 48.3659 462.5 45.0898 453.684 45.0898C444.867 45.0898 437.833 48.3418 432.582 54.8457C427.331 61.3496 424.705 70.5996 424.705 82.5957C424.705 94.5918 427.331 103.842 432.582 110.346C437.833 116.85 444.867 120.102 453.684 120.102ZM504.703 82.5957C504.703 101.722 499.331 116.368 488.588 126.533C480.542 134.82 468.908 138.963 453.684 138.963C438.46 138.963 426.825 134.82 418.779 126.533C407.988 116.368 402.592 101.722 402.592 82.5957C402.592 63.084 407.988 48.4382 418.779 38.6582C426.825 30.3717 438.46 26.2285 453.684 26.2285C468.908 26.2285 480.542 30.3717 488.588 38.6582C499.331 48.4382 504.703 63.084 504.703 82.5957ZM536.283 29.4805L550.375 90.4727L553.41 107.455L556.518 90.834L568.514 29.4805H592L604.646 90.4727L607.898 107.455L611.15 91.123L625.387 29.4805H648.006L618.016 136H596.77L583.906 73.707L580.148 53.1113L576.391 73.707L563.527 136H542.859L512.652 29.4805H536.283ZM740.289 48.3418H683.922V70.9609H735.664V89.4609H683.922V116.85H742.891V136H662.17V29.4805H740.289V48.3418ZM782.492 47.9805V76.5977H807.713C812.723 76.5977 816.481 76.0195 818.986 74.8633C823.419 72.8398 825.635 68.8411 825.635 62.8672C825.635 56.4115 823.491 52.0755 819.203 49.8594C816.794 48.6068 813.181 47.9805 808.363 47.9805H782.492ZM812.988 29.4805C820.456 29.625 826.189 30.5404 830.188 32.2266C834.234 33.9128 837.655 36.3939 840.449 39.6699C842.762 42.3678 844.592 45.3548 845.941 48.6309C847.29 51.9069 847.965 55.6406 847.965 59.832C847.965 64.8906 846.688 69.877 844.135 74.791C841.581 79.6569 837.366 83.1016 831.488 85.125C836.402 87.1003 839.871 89.9186 841.895 93.5801C843.966 97.1934 845.002 102.734 845.002 110.201V117.355C845.002 122.221 845.195 125.521 845.58 127.256C846.158 130.002 847.507 132.025 849.627 133.326V136H825.129C824.454 133.639 823.973 131.736 823.684 130.291C823.105 127.304 822.792 124.245 822.744 121.113L822.6 111.213C822.503 104.42 821.251 99.8913 818.842 97.627C816.481 95.3626 812.025 94.2305 805.473 94.2305H782.492V136H760.74V29.4805H812.988ZM922.471 29.4805H947.691L912.064 95.9648V136H889.807V95.9648L852.951 29.4805H879.184L901.297 75.875L922.471 29.4805ZM1015.12 103.119C1015.79 107.985 1017.11 111.622 1019.09 114.031C1022.7 118.415 1028.89 120.607 1037.66 120.607C1042.91 120.607 1047.18 120.029 1050.45 118.873C1056.67 116.657 1059.78 112.538 1059.78 106.516C1059.78 102.999 1058.23 100.277 1055.15 98.3496C1052.07 96.4707 1047.23 94.8086 1040.62 93.3633L1029.35 90.834C1018.27 88.3288 1010.61 85.6068 1006.37 82.668C999.193 77.7539 995.604 70.0697 995.604 59.6152C995.604 50.0762 999.072 42.151 1006.01 35.8398C1012.95 29.5286 1023.14 26.373 1036.58 26.373C1047.8 26.373 1057.37 29.36 1065.27 35.334C1073.22 41.2598 1077.38 49.8835 1077.77 61.2051H1056.38C1055.99 54.7975 1053.2 50.2448 1048 47.5469C1044.53 45.7643 1040.22 44.873 1035.06 44.873C1029.33 44.873 1024.75 46.0293 1021.33 48.3418C1017.91 50.6543 1016.2 53.8822 1016.2 58.0254C1016.2 61.8314 1017.89 64.6738 1021.26 66.5527C1023.43 67.8053 1028.05 69.2747 1035.13 70.9609L1053.49 75.3691C1061.53 77.2962 1067.6 79.8737 1071.7 83.1016C1078.06 88.112 1081.24 95.3626 1081.24 104.854C1081.24 114.585 1077.5 122.679 1070.04 129.135C1062.62 135.542 1052.12 138.746 1038.53 138.746C1024.65 138.746 1013.74 135.59 1005.79 129.279C997.844 122.92 993.869 114.2 993.869 103.119H1015.12ZM1175.11 29.4805V48.3418H1143.24V136H1120.84V48.3418H1088.83V29.4805H1175.11Z" fill="#E0E0E0"/>
</svg>
