<svg width="1680" height="1050" viewBox="0 0 1680 1050" fill="none" xmlns="http://www.w3.org/2000/svg">
<path d="M4.4082 68.0703C4.4082 56.8451 7.63607 47.7637 14.0918 40.8262C20.5957 33.8405 29.0267 30.3477 39.3848 30.3477C55.3314 30.3477 66.2676 37.4056 72.1934 51.5215C75.5658 59.5189 77.252 70.0456 77.252 83.1016C77.252 95.7721 75.638 106.347 72.4102 114.826C66.2435 130.965 54.9219 139.035 38.4453 139.035C30.5924 139.035 23.5345 136.723 17.2715 132.098C11.0085 127.424 7.41927 120.632 6.50391 111.719H27.0273C27.5091 114.802 28.8099 117.307 30.9297 119.234C33.0495 121.161 35.8678 122.125 39.3848 122.125C46.1777 122.125 50.9473 118.367 53.6934 110.852C55.1868 106.708 56.1263 100.662 56.5117 92.7129C54.6328 95.0736 52.6335 96.8802 50.5137 98.1328C46.6595 100.445 41.9141 101.602 36.2773 101.602C27.9427 101.602 20.5475 98.735 14.0918 93.002C7.63607 87.2207 4.4082 78.9102 4.4082 68.0703ZM40.7578 84.8359C43.6003 84.8359 46.2741 84.0169 48.7793 82.3789C53.4525 79.3919 55.7891 74.2129 55.7891 66.8418C55.7891 60.916 54.3919 56.2188 51.5977 52.75C48.8516 49.2812 45.0697 47.5469 40.252 47.5469C36.735 47.5469 33.724 48.5345 31.2188 50.5098C27.2682 53.5931 25.293 58.8203 25.293 66.1914C25.293 72.4062 26.5456 77.0794 29.0508 80.2109C31.6042 83.2943 35.5065 84.8359 40.7578 84.8359ZM160.43 48.7031C157.346 51.7383 153.059 57.1582 147.566 64.9629C142.074 72.7194 137.473 80.7409 133.764 89.0273C130.825 95.5312 128.175 103.48 125.814 112.875C123.454 122.27 122.273 129.978 122.273 136H100.883C101.509 117.211 107.676 97.6751 119.383 77.3926C126.947 64.8184 133.282 56.0501 138.389 51.0879H86.1406L86.4297 32.5879H160.43V48.7031ZM288.846 62.7227C287.16 55.4479 283.04 50.3652 276.488 47.4746C272.827 45.8848 268.756 45.0898 264.275 45.0898C255.7 45.0898 248.642 48.3418 243.102 54.8457C237.609 61.3014 234.863 71.0332 234.863 84.041C234.863 97.1452 237.85 106.419 243.824 111.863C249.798 117.307 256.591 120.029 264.203 120.029C271.671 120.029 277.789 117.885 282.559 113.598C287.328 109.262 290.267 103.601 291.375 96.6152H266.732V78.8379H311.104V136H296.361L294.121 122.703C289.833 127.762 285.979 131.327 282.559 133.398C276.681 137.012 269.454 138.818 260.879 138.818C246.763 138.818 235.201 133.928 226.191 124.148C216.797 114.32 212.1 100.879 212.1 83.8242C212.1 66.5768 216.845 52.75 226.336 42.3438C235.827 31.9375 248.377 26.7344 263.986 26.7344C277.524 26.7344 288.388 30.179 296.578 37.0684C304.816 43.9095 309.538 52.4609 310.742 62.7227H288.846ZM354.68 47.9805V76.5977H379.9C384.911 76.5977 388.669 76.0195 391.174 74.8633C395.606 72.8398 397.822 68.8411 397.822 62.8672C397.822 56.4115 395.678 52.0755 391.391 49.8594C388.982 48.6068 385.368 47.9805 380.551 47.9805H354.68ZM385.176 29.4805C392.643 29.625 398.376 30.5404 402.375 32.2266C406.422 33.9128 409.842 36.3939 412.637 39.6699C414.949 42.3678 416.78 45.3548 418.129 48.6309C419.478 51.9069 420.152 55.6406 420.152 59.832C420.152 64.8906 418.876 69.877 416.322 74.791C413.769 79.6569 409.553 83.1016 403.676 85.125C408.59 87.1003 412.059 89.9186 414.082 93.5801C416.154 97.1934 417.189 102.734 417.189 110.201V117.355C417.189 122.221 417.382 125.521 417.768 127.256C418.346 130.002 419.695 132.025 421.814 133.326V136H397.316C396.642 133.639 396.16 131.736 395.871 130.291C395.293 127.304 394.98 124.245 394.932 121.113L394.787 111.213C394.691 104.42 393.438 99.8913 391.029 97.627C388.669 95.3626 384.212 94.2305 377.66 94.2305H354.68V136H332.928V29.4805H385.176ZM518.145 48.3418H461.777V70.9609H513.52V89.4609H461.777V116.85H520.746V136H440.025V29.4805H518.145V48.3418ZM616.859 48.3418H560.492V70.9609H612.234V89.4609H560.492V116.85H619.461V136H538.74V29.4805H616.859V48.3418ZM636.443 29.4805H659.785L702.205 103.842V29.4805H722.945V136H700.688L657.184 60.3379V136H636.443V29.4805ZM758.283 29.4805L772.375 90.4727L775.41 107.455L778.518 90.834L790.514 29.4805H814L826.646 90.4727L829.898 107.455L833.15 91.123L847.387 29.4805H870.006L840.016 136H818.77L805.906 73.707L802.148 53.1113L798.391 73.707L785.527 136H764.859L734.652 29.4805H758.283ZM903.898 136H881.785V29.4805H903.898V136ZM920.086 83.6074C920.086 65.0111 925.072 50.6784 935.045 40.6094C943.717 31.8411 954.749 27.457 968.143 27.457C986.064 27.457 999.169 33.3346 1007.46 45.0898C1012.03 51.6901 1014.49 58.3145 1014.83 64.9629H992.568C991.123 59.8561 989.268 56.002 987.004 53.4004C982.957 48.7754 976.959 46.4629 969.01 46.4629C960.916 46.4629 954.533 49.7389 949.859 56.291C945.186 62.7949 942.85 72.0208 942.85 83.9688C942.85 95.9167 945.307 104.878 950.221 110.852C955.183 116.777 961.47 119.74 969.082 119.74C976.887 119.74 982.837 117.187 986.932 112.08C989.196 109.334 991.075 105.215 992.568 99.7227H1014.61C1012.68 111.333 1007.74 120.776 999.795 128.051C991.894 135.326 981.753 138.963 969.371 138.963C954.051 138.963 942.007 134.049 933.238 124.221C924.47 114.344 920.086 100.807 920.086 83.6074ZM1031.52 136V29.4805H1053.56V70.0938H1095.19V29.4805H1117.3V136H1095.19V88.4492H1053.56V136H1031.52ZM1203.44 95.748H1230.47L1217.17 53.834L1203.44 95.748ZM1204.81 29.4805H1229.96L1267.68 136H1243.55L1236.68 114.104H1197.44L1190.07 136H1166.8L1204.81 29.4805ZM1332.65 29.4805H1355.78L1319.43 136H1298.4L1262.41 29.4805H1286.18L1309.31 110.346L1332.65 29.4805ZM1447.77 48.3418H1391.4V70.9609H1443.14V89.4609H1391.4V116.85H1450.37V136H1369.65V29.4805H1447.77V48.3418Z" fill="#333333"/>
</svg>
