<svg width="1680" height="1050" viewBox="0 0 1680 1050" fill="none" xmlns="http://www.w3.org/2000/svg">
<path d="M25.293 102.83C25.293 108.467 26.8105 113.068 29.8457 116.633C32.8809 120.198 36.735 121.98 41.4082 121.98C45.985 121.98 49.5742 120.27 52.1758 116.85C54.8255 113.381 56.1504 108.9 56.1504 103.408C56.1504 97.2897 54.6569 92.6165 51.6699 89.3887C48.6829 86.1126 45.0215 84.4746 40.6855 84.4746C37.1686 84.4746 34.0612 85.5345 31.3633 87.6543C27.3164 90.7858 25.293 95.8444 25.293 102.83ZM54.2715 57.5918C54.2715 55.9056 53.6211 54.0508 52.3203 52.0273C50.1042 48.7513 46.7559 47.1133 42.2754 47.1133C35.5788 47.1133 30.8092 50.8711 27.9668 58.3867C26.4251 62.5299 25.3652 68.6484 24.7871 76.7422C27.3405 73.707 30.3034 71.4909 33.6758 70.0938C37.0482 68.6966 40.9023 67.998 45.2383 67.998C54.5365 67.998 62.1484 71.1536 68.0742 77.4648C74.0482 83.776 77.0352 91.8457 77.0352 101.674C77.0352 111.454 74.1204 120.077 68.291 127.545C62.4616 135.012 53.4043 138.746 41.1191 138.746C27.9186 138.746 18.1868 133.23 11.9238 122.197C7.05794 113.574 4.625 102.445 4.625 88.8105C4.625 80.8132 4.96224 74.3092 5.63672 69.2988C6.84115 60.3861 9.17773 52.9668 12.6465 47.041C15.6335 41.9824 19.5358 37.9115 24.3535 34.8281C29.2194 31.7448 35.0247 30.2031 41.7695 30.2031C51.5013 30.2031 59.2578 32.7083 65.0391 37.7188C70.8203 42.681 74.0723 49.3053 74.7949 57.5918H54.2715ZM108.037 84.6191C108.037 96.6634 109.025 105.889 111 112.297C112.975 118.656 117.022 121.836 123.141 121.836C129.259 121.836 133.258 118.656 135.137 112.297C137.064 105.889 138.027 96.6634 138.027 84.6191C138.027 71.9967 137.064 62.6504 135.137 56.5801C133.258 50.5098 129.259 47.4746 123.141 47.4746C117.022 47.4746 112.975 50.5098 111 56.5801C109.025 62.6504 108.037 71.9967 108.037 84.6191ZM123.141 30.4922C136.486 30.4922 145.832 35.1895 151.18 44.584C156.576 53.9785 159.273 67.3236 159.273 84.6191C159.273 101.915 156.576 115.236 151.18 124.582C145.832 133.928 136.486 138.602 123.141 138.602C109.796 138.602 100.425 133.928 95.0293 124.582C89.6816 115.236 87.0078 101.915 87.0078 84.6191C87.0078 67.3236 89.6816 53.9785 95.0293 44.584C100.425 35.1895 109.796 30.4922 123.141 30.4922ZM233.346 103.119C234.02 107.985 235.345 111.622 237.32 114.031C240.934 118.415 247.124 120.607 255.893 120.607C261.144 120.607 265.408 120.029 268.684 118.873C274.898 116.657 278.006 112.538 278.006 106.516C278.006 102.999 276.464 100.277 273.381 98.3496C270.298 96.4707 265.456 94.8086 258.855 93.3633L247.582 90.834C236.501 88.3288 228.841 85.6068 224.602 82.668C217.423 77.7539 213.834 70.0697 213.834 59.6152C213.834 50.0762 217.303 42.151 224.24 35.8398C231.178 29.5286 241.367 26.373 254.809 26.373C266.034 26.373 275.597 29.36 283.498 35.334C291.447 41.2598 295.615 49.8835 296 61.2051H274.609C274.224 54.7975 271.43 50.2448 266.227 47.5469C262.758 45.7643 258.446 44.873 253.291 44.873C247.558 44.873 242.981 46.0293 239.561 48.3418C236.14 50.6543 234.43 53.8822 234.43 58.0254C234.43 61.8314 236.116 64.6738 239.488 66.5527C241.656 67.8053 246.281 69.2747 253.363 70.9609L271.719 75.3691C279.764 77.2962 285.835 79.8737 289.93 83.1016C296.289 88.112 299.469 95.3626 299.469 104.854C299.469 114.585 295.735 122.679 288.268 129.135C280.848 135.542 270.346 138.746 256.76 138.746C242.885 138.746 231.973 135.59 224.023 129.279C216.074 122.92 212.1 114.2 212.1 103.119H233.346ZM375.926 63.373C375.926 57.8327 374.456 53.8822 371.518 51.5215C368.627 49.1608 364.556 47.9805 359.305 47.9805H338.564V79.3438H359.305C364.556 79.3438 368.627 78.0671 371.518 75.5137C374.456 72.9603 375.926 68.9134 375.926 63.373ZM397.967 63.2285C397.967 75.8027 394.787 84.6914 388.428 89.8945C382.068 95.0977 372.987 97.6992 361.184 97.6992H338.564V136H316.451V29.4805H362.846C373.541 29.4805 382.068 32.2266 388.428 37.7188C394.787 43.2109 397.967 51.7142 397.967 63.2285ZM436.918 47.9805V76.5977H462.139C467.149 76.5977 470.907 76.0195 473.412 74.8633C477.844 72.8398 480.061 68.8411 480.061 62.8672C480.061 56.4115 477.917 52.0755 473.629 49.8594C471.22 48.6068 467.607 47.9805 462.789 47.9805H436.918ZM467.414 29.4805C474.882 29.625 480.615 30.5404 484.613 32.2266C488.66 33.9128 492.081 36.3939 494.875 39.6699C497.188 42.3678 499.018 45.3548 500.367 48.6309C501.716 51.9069 502.391 55.6406 502.391 59.832C502.391 64.8906 501.114 69.877 498.561 74.791C496.007 79.6569 491.792 83.1016 485.914 85.125C490.828 87.1003 494.297 89.9186 496.32 93.5801C498.392 97.1934 499.428 102.734 499.428 110.201V117.355C499.428 122.221 499.62 125.521 500.006 127.256C500.584 130.002 501.933 132.025 504.053 133.326V136H479.555C478.88 133.639 478.398 131.736 478.109 130.291C477.531 127.304 477.218 124.245 477.17 121.113L477.025 111.213C476.929 104.42 475.676 99.8913 473.268 97.627C470.907 95.3626 466.451 94.2305 459.898 94.2305H436.918V136H415.166V29.4805H467.414ZM541.992 136H519.879V29.4805H541.992V136ZM562.443 29.4805H585.785L628.205 103.842V29.4805H648.945V136H626.688L583.184 60.3379V136H562.443V29.4805ZM741.373 62.7227C739.687 55.4479 735.568 50.3652 729.016 47.4746C725.354 45.8848 721.283 45.0898 716.803 45.0898C708.227 45.0898 701.169 48.3418 695.629 54.8457C690.137 61.3014 687.391 71.0332 687.391 84.041C687.391 97.1452 690.378 106.419 696.352 111.863C702.326 117.307 709.118 120.029 716.73 120.029C724.198 120.029 730.316 117.885 735.086 113.598C739.855 109.262 742.794 103.601 743.902 96.6152H719.26V78.8379H763.631V136H748.889L746.648 122.703C742.361 127.762 738.507 131.327 735.086 133.398C729.208 137.012 721.982 138.818 713.406 138.818C699.29 138.818 687.728 133.928 678.719 124.148C669.324 114.32 664.627 100.879 664.627 83.8242C664.627 66.5768 669.372 52.75 678.863 42.3438C688.354 31.9375 700.904 26.7344 716.514 26.7344C730.051 26.7344 740.915 30.179 749.105 37.0684C757.344 43.9095 762.065 52.4609 763.27 62.7227H741.373ZM842.256 103.119C842.93 107.985 844.255 111.622 846.23 114.031C849.844 118.415 856.035 120.607 864.803 120.607C870.054 120.607 874.318 120.029 877.594 118.873C883.809 116.657 886.916 112.538 886.916 106.516C886.916 102.999 885.374 100.277 882.291 98.3496C879.208 96.4707 874.366 94.8086 867.766 93.3633L856.492 90.834C845.411 88.3288 837.751 85.6068 833.512 82.668C826.333 77.7539 822.744 70.0697 822.744 59.6152C822.744 50.0762 826.213 42.151 833.15 35.8398C840.088 29.5286 850.277 26.373 863.719 26.373C874.944 26.373 884.507 29.36 892.408 35.334C900.357 41.2598 904.525 49.8835 904.91 61.2051H883.52C883.134 54.7975 880.34 50.2448 875.137 47.5469C871.668 45.7643 867.356 44.873 862.201 44.873C856.468 44.873 851.891 46.0293 848.471 48.3418C845.05 50.6543 843.34 53.8822 843.34 58.0254C843.34 61.8314 845.026 64.6738 848.398 66.5527C850.566 67.8053 855.191 69.2747 862.273 70.9609L880.629 75.3691C888.674 77.2962 894.745 79.8737 898.84 83.1016C905.199 88.112 908.379 95.3626 908.379 104.854C908.379 114.585 904.645 122.679 897.178 129.135C889.758 135.542 879.256 138.746 865.67 138.746C851.795 138.746 840.883 135.59 832.934 129.279C824.984 122.92 821.01 114.2 821.01 103.119H842.256ZM1002.25 29.4805V48.3418H970.383V136H947.98V48.3418H915.967V29.4805H1002.25Z" fill="#333333"/>
</svg>
