<svg width="1680" height="1050" viewBox="0 0 1680 1050" fill="none" xmlns="http://www.w3.org/2000/svg">
<path d="M78.0469 48.7031C74.9635 51.7383 70.6758 57.1582 65.1836 64.9629C59.6914 72.7194 55.0905 80.7409 51.3809 89.0273C48.4421 95.5312 45.7923 103.48 43.4316 112.875C41.071 122.27 39.8906 129.978 39.8906 136H18.5C19.1263 117.211 25.293 97.6751 37 77.3926C44.5638 64.8184 50.8991 56.0501 56.0059 51.0879H3.75781L4.04688 32.5879H78.0469V48.7031ZM160.43 48.7031C157.346 51.7383 153.059 57.1582 147.566 64.9629C142.074 72.7194 137.473 80.7409 133.764 89.0273C130.825 95.5312 128.175 103.48 125.814 112.875C123.454 122.27 122.273 129.978 122.273 136H100.883C101.509 117.211 107.676 97.6751 119.383 77.3926C126.947 64.8184 133.282 56.0501 138.389 51.0879H86.1406L86.4297 32.5879H160.43V48.7031ZM231.25 105.576C231.25 110.731 232.575 114.73 235.225 117.572C237.923 120.415 241.632 121.836 246.354 121.836C251.075 121.836 254.76 120.415 257.41 117.572C260.108 114.73 261.457 110.731 261.457 105.576C261.457 100.229 260.084 96.1816 257.338 93.4355C254.64 90.6413 250.979 89.2441 246.354 89.2441C241.729 89.2441 238.043 90.6413 235.297 93.4355C232.599 96.1816 231.25 100.229 231.25 105.576ZM209.859 106.949C209.859 101.072 211.184 95.748 213.834 90.9785C216.532 86.209 220.458 82.6198 225.613 80.2109C220.555 76.8385 217.255 73.2012 215.713 69.2988C214.219 65.3483 213.473 61.6628 213.473 58.2422C213.473 50.6302 216.339 44.1504 222.072 38.8027C227.805 33.4069 235.899 30.709 246.354 30.709C256.808 30.709 264.902 33.4069 270.635 38.8027C276.368 44.1504 279.234 50.6302 279.234 58.2422C279.234 61.6628 278.464 65.3483 276.922 69.2988C275.428 73.2012 272.152 76.5977 267.094 79.4883C272.249 82.3789 276.127 86.209 278.729 90.9785C281.33 95.748 282.631 101.072 282.631 106.949C282.631 115.766 279.355 123.281 272.803 129.496C266.299 135.663 257.193 138.746 245.486 138.746C233.779 138.746 224.915 135.663 218.893 129.496C212.87 123.281 209.859 115.766 209.859 106.949ZM233.129 60.5547C233.129 64.3607 234.285 67.4681 236.598 69.877C238.958 72.2858 242.21 73.4902 246.354 73.4902C250.545 73.4902 253.773 72.2858 256.037 69.877C258.35 67.4681 259.506 64.3607 259.506 60.5547C259.506 56.4115 258.35 53.1836 256.037 50.8711C253.773 48.5104 250.545 47.3301 246.354 47.3301C242.21 47.3301 238.958 48.5104 236.598 50.8711C234.285 53.1836 233.129 56.4115 233.129 60.5547ZM377.01 29.4805V48.3418H345.141V136H322.738V48.3418H290.725V29.4805H377.01ZM389.945 136V29.4805H411.986V70.0938H453.611V29.4805H475.725V136H453.611V88.4492H411.986V136H389.945ZM561.865 95.748H588.893L575.596 53.834L561.865 95.748ZM563.238 29.4805H588.387L626.109 136H601.973L595.107 114.104H555.867L548.496 136H525.227L563.238 29.4805ZM691.076 29.4805H714.201L677.852 136H656.822L620.834 29.4805H644.609L667.734 110.346L691.076 29.4805ZM806.195 48.3418H749.828V70.9609H801.57V89.4609H749.828V116.85H808.797V136H728.076V29.4805H806.195V48.3418ZM890.963 95.748H917.99L904.693 53.834L890.963 95.748ZM892.336 29.4805H917.484L955.207 136H931.07L924.205 114.104H884.965L877.594 136H854.324L892.336 29.4805ZM1035.21 29.4805V48.3418H1003.34V136H980.934V48.3418H948.92V29.4805H1035.21ZM1088.46 63.7344V49.7148C1094.97 49.4258 1099.52 48.9922 1102.12 48.4141C1106.27 47.4987 1109.64 45.668 1112.24 42.9219C1114.02 41.043 1115.37 38.5378 1116.29 35.4062C1116.82 33.5273 1117.08 32.1302 1117.08 31.2148H1134.21V136H1113.11V63.7344H1088.46ZM1237.98 113.453H1226.13V136H1205.97V113.453H1164.49V95.459L1203.01 31.8652H1226.13V97.3379H1237.98V113.453ZM1205.97 97.3379V52.0996L1179.74 97.3379H1205.97ZM1331.64 29.4805V48.3418H1299.77V136H1277.37V48.3418H1245.35V29.4805H1331.64ZM1344.57 136V29.4805H1366.62V70.0938H1408.24V29.4805H1430.35V136H1408.24V88.4492H1366.62V136H1344.57ZM1508.98 103.119C1509.65 107.985 1510.98 111.622 1512.95 114.031C1516.57 118.415 1522.76 120.607 1531.53 120.607C1536.78 120.607 1541.04 120.029 1544.32 118.873C1550.53 116.657 1553.64 112.538 1553.64 106.516C1553.64 102.999 1552.1 100.277 1549.01 98.3496C1545.93 96.4707 1541.09 94.8086 1534.49 93.3633L1523.21 90.834C1512.13 88.3288 1504.47 85.6068 1500.23 82.668C1493.06 77.7539 1489.47 70.0697 1489.47 59.6152C1489.47 50.0762 1492.94 42.151 1499.87 35.8398C1506.81 29.5286 1517 26.373 1530.44 26.373C1541.67 26.373 1551.23 29.36 1559.13 35.334C1567.08 41.2598 1571.25 49.8835 1571.63 61.2051H1550.24C1549.86 54.7975 1547.06 50.2448 1541.86 47.5469C1538.39 45.7643 1534.08 44.873 1528.92 44.873C1523.19 44.873 1518.61 46.0293 1515.19 48.3418C1511.77 50.6543 1510.06 53.8822 1510.06 58.0254C1510.06 61.8314 1511.75 64.6738 1515.12 66.5527C1517.29 67.8053 1521.91 69.2747 1529 70.9609L1547.35 75.3691C1555.4 77.2962 1561.47 79.8737 1565.56 83.1016C1571.92 88.112 1575.1 95.3626 1575.1 104.854C1575.1 114.585 1571.37 122.679 1563.9 129.135C1556.48 135.542 1545.98 138.746 1532.39 138.746C1518.52 138.746 1507.61 135.59 1499.66 129.279C1491.71 122.92 1487.73 114.2 1487.73 103.119H1508.98ZM1668.97 29.4805V48.3418H1637.11V136H1614.7V48.3418H1582.69V29.4805H1668.97Z" fill="#333333"/>
</svg>
