<svg width="1680" height="1050" viewBox="0 0 1680 1050" fill="none" xmlns="http://www.w3.org/2000/svg">
<path d="M24.1367 103.842C24.1367 108.033 24.8112 111.502 26.1602 114.248C28.6654 119.307 33.2181 121.836 39.8184 121.836C43.8652 121.836 47.3822 120.463 50.3691 117.717C53.4043 114.923 54.9219 110.924 54.9219 105.721C54.9219 98.8314 52.1276 94.2305 46.5391 91.918C43.3594 90.6172 38.349 89.9668 31.5078 89.9668V75.2246C38.2044 75.1283 42.8776 74.4779 45.5273 73.2734C50.1042 71.25 52.3926 67.1549 52.3926 60.9883C52.3926 56.9896 51.2122 53.7376 48.8516 51.2324C46.5391 48.7272 43.263 47.4746 39.0234 47.4746C34.1576 47.4746 30.5684 49.0163 28.2559 52.0996C25.9915 55.1829 24.9076 59.3021 25.0039 64.457H5.78125C5.97396 59.2539 6.86523 54.3158 8.45508 49.6426C10.1413 45.5475 12.791 41.7656 16.4043 38.2969C19.1022 35.8398 22.306 33.9609 26.0156 32.6602C29.7253 31.3594 34.278 30.709 39.6738 30.709C49.6947 30.709 57.7643 33.3105 63.8828 38.5137C70.0495 43.6686 73.1328 50.6061 73.1328 59.3262C73.1328 65.4928 71.3021 70.696 67.6406 74.9355C65.3281 77.5853 62.9193 79.3919 60.4141 80.3555C62.293 80.3555 64.9909 81.9694 68.5078 85.1973C73.7591 90.0632 76.3848 96.7116 76.3848 105.143C76.3848 114.007 73.3014 121.812 67.1348 128.557C61.0163 135.253 51.9349 138.602 39.8906 138.602C25.0521 138.602 14.7422 133.76 8.96094 124.076C5.92578 118.921 4.23958 112.176 3.90234 103.842H24.1367ZM160.43 48.7031C157.346 51.7383 153.059 57.1582 147.566 64.9629C142.074 72.7194 137.473 80.7409 133.764 89.0273C130.825 95.5312 128.175 103.48 125.814 112.875C123.454 122.27 122.273 129.978 122.273 136H100.883C101.509 117.211 107.676 97.6751 119.383 77.3926C126.947 64.8184 133.282 56.0501 138.389 51.0879H86.1406L86.4297 32.5879H160.43V48.7031ZM189.191 107.961C190.01 112.441 191.576 115.91 193.889 118.367C196.201 120.776 199.574 121.98 204.006 121.98C209.113 121.98 212.991 120.198 215.641 116.633C218.339 113.02 219.688 108.491 219.688 103.047C219.688 97.6992 218.435 93.1947 215.93 89.5332C213.424 85.8236 209.522 83.9688 204.223 83.9688C201.717 83.9688 199.549 84.2819 197.719 84.9082C194.491 86.0645 192.058 88.2083 190.42 91.3398L171.92 90.4727L179.291 32.5879H237.031V50.0762H194.178L190.42 72.9844C193.6 70.9128 196.081 69.5397 197.863 68.8652C200.85 67.7572 204.488 67.2031 208.775 67.2031C217.447 67.2031 225.011 70.1178 231.467 75.9473C237.923 81.7767 241.15 90.2559 241.15 101.385C241.15 111.068 238.043 119.716 231.828 127.328C225.613 134.94 216.315 138.746 203.934 138.746C193.961 138.746 185.771 136.072 179.363 130.725C172.956 125.377 169.391 117.789 168.668 107.961H189.191ZM299.613 29.4805H321.871V116.85H374.625V136H299.613V29.4805ZM419.213 95.748H446.24L432.943 53.834L419.213 95.748ZM420.586 29.4805H445.734L483.457 136H459.32L452.455 114.104H413.215L405.844 136H382.574L420.586 29.4805ZM497.043 29.625H572.561V48.3418H519.156V72.8398H565.912V91.3398H519.156V136H497.043V29.625ZM608.549 95.748H635.576L622.279 53.834L608.549 95.748ZM609.922 29.4805H635.07L672.793 136H648.656L641.791 114.104H602.551L595.18 136H571.91L609.922 29.4805ZM733.568 29.4805H758.789L723.162 95.9648V136H700.904V95.9648L664.049 29.4805H690.281L712.395 75.875L733.568 29.4805ZM850.277 48.3418H793.91V70.9609H845.652V89.4609H793.91V116.85H852.879V136H772.158V29.4805H850.277V48.3418ZM947.619 29.4805V48.3418H915.75V136H893.348V48.3418H861.334V29.4805H947.619ZM1038.1 29.4805V48.3418H1006.23V136H983.824V48.3418H951.811V29.4805H1038.1ZM1129.95 48.3418H1073.58V70.9609H1125.32V89.4609H1073.58V116.85H1132.55V136H1051.83V29.4805H1129.95V48.3418ZM1207.2 103.119C1207.87 107.985 1209.2 111.622 1211.17 114.031C1214.79 118.415 1220.98 120.607 1229.74 120.607C1235 120.607 1239.26 120.029 1242.54 118.873C1248.75 116.657 1251.86 112.538 1251.86 106.516C1251.86 102.999 1250.32 100.277 1247.23 98.3496C1244.15 96.4707 1239.31 94.8086 1232.71 93.3633L1221.43 90.834C1210.35 88.3288 1202.69 85.6068 1198.45 82.668C1191.27 77.7539 1187.69 70.0697 1187.69 59.6152C1187.69 50.0762 1191.15 42.151 1198.09 35.8398C1205.03 29.5286 1215.22 26.373 1228.66 26.373C1239.89 26.373 1249.45 29.36 1257.35 35.334C1265.3 41.2598 1269.47 49.8835 1269.85 61.2051H1248.46C1248.08 54.7975 1245.28 50.2448 1240.08 47.5469C1236.61 45.7643 1232.3 44.873 1227.14 44.873C1221.41 44.873 1216.83 46.0293 1213.41 48.3418C1209.99 50.6543 1208.28 53.8822 1208.28 58.0254C1208.28 61.8314 1209.97 64.6738 1213.34 66.5527C1215.51 67.8053 1220.13 69.2747 1227.21 70.9609L1245.57 75.3691C1253.62 77.2962 1259.69 79.8737 1263.78 83.1016C1270.14 88.112 1273.32 95.3626 1273.32 104.854C1273.32 114.585 1269.59 122.679 1262.12 129.135C1254.7 135.542 1244.2 138.746 1230.61 138.746C1216.74 138.746 1205.82 135.59 1197.88 129.279C1189.93 122.92 1185.95 114.2 1185.95 103.119H1207.2ZM1367.19 29.4805V48.3418H1335.32V136H1312.92V48.3418H1280.91V29.4805H1367.19Z" fill="#333333"/>
</svg>
