<svg width="1680" height="1050" viewBox="0 0 1680 1050" fill="none" xmlns="http://www.w3.org/2000/svg">
<path d="M78.0469 48.7031C74.9635 51.7383 70.6758 57.1582 65.1836 64.9629C59.6914 72.7194 55.0905 80.7409 51.3809 89.0273C48.4421 95.5312 45.7923 103.48 43.4316 112.875C41.071 122.27 39.8906 129.978 39.8906 136H18.5C19.1263 117.211 25.293 97.6751 37 77.3926C44.5638 64.8184 50.8991 56.0501 56.0059 51.0879H3.75781L4.04688 32.5879H78.0469V48.7031ZM108.037 84.6191C108.037 96.6634 109.025 105.889 111 112.297C112.975 118.656 117.022 121.836 123.141 121.836C129.259 121.836 133.258 118.656 135.137 112.297C137.064 105.889 138.027 96.6634 138.027 84.6191C138.027 71.9967 137.064 62.6504 135.137 56.5801C133.258 50.5098 129.259 47.4746 123.141 47.4746C117.022 47.4746 112.975 50.5098 111 56.5801C109.025 62.6504 108.037 71.9967 108.037 84.6191ZM123.141 30.4922C136.486 30.4922 145.832 35.1895 151.18 44.584C156.576 53.9785 159.273 67.3236 159.273 84.6191C159.273 101.915 156.576 115.236 151.18 124.582C145.832 133.928 136.486 138.602 123.141 138.602C109.796 138.602 100.425 133.928 95.0293 124.582C89.6816 115.236 87.0078 101.915 87.0078 84.6191C87.0078 67.3236 89.6816 53.9785 95.0293 44.584C100.425 35.1895 109.796 30.4922 123.141 30.4922ZM231.756 29.4805L245.848 90.4727L248.883 107.455L251.99 90.834L263.986 29.4805H287.473L300.119 90.4727L303.371 107.455L306.623 91.123L320.859 29.4805H343.479L313.488 136H292.242L279.379 73.707L275.621 53.1113L271.863 73.707L259 136H238.332L208.125 29.4805H231.756ZM378.021 95.748H405.049L391.752 53.834L378.021 95.748ZM379.395 29.4805H404.543L442.266 136H418.129L411.264 114.104H372.023L364.652 136H341.383L379.395 29.4805ZM471.967 103.119C472.641 107.985 473.966 111.622 475.941 114.031C479.555 118.415 485.745 120.607 494.514 120.607C499.765 120.607 504.029 120.029 507.305 118.873C513.52 116.657 516.627 112.538 516.627 106.516C516.627 102.999 515.085 100.277 512.002 98.3496C508.919 96.4707 504.077 94.8086 497.477 93.3633L486.203 90.834C475.122 88.3288 467.462 85.6068 463.223 82.668C456.044 77.7539 452.455 70.0697 452.455 59.6152C452.455 50.0762 455.924 42.151 462.861 35.8398C469.799 29.5286 479.988 26.373 493.43 26.373C504.655 26.373 514.218 29.36 522.119 35.334C530.068 41.2598 534.236 49.8835 534.621 61.2051H513.23C512.845 54.7975 510.051 50.2448 504.848 47.5469C501.379 45.7643 497.067 44.873 491.912 44.873C486.179 44.873 481.602 46.0293 478.182 48.3418C474.761 50.6543 473.051 53.8822 473.051 58.0254C473.051 61.8314 474.737 64.6738 478.109 66.5527C480.277 67.8053 484.902 69.2747 491.984 70.9609L510.34 75.3691C518.385 77.2962 524.456 79.8737 528.551 83.1016C534.91 88.112 538.09 95.3626 538.09 104.854C538.09 114.585 534.356 122.679 526.889 129.135C519.469 135.542 508.967 138.746 495.381 138.746C481.506 138.746 470.594 135.59 462.645 129.279C454.695 122.92 450.721 114.2 450.721 103.119H471.967ZM554.422 136V29.4805H576.463V70.0938H618.088V29.4805H640.201V136H618.088V88.4492H576.463V136H554.422ZM681.898 136H659.785V29.4805H681.898V136ZM702.35 29.4805H725.691L768.111 103.842V29.4805H788.852V136H766.594L723.09 60.3379V136H702.35V29.4805ZM881.279 62.7227C879.593 55.4479 875.474 50.3652 868.922 47.4746C865.26 45.8848 861.189 45.0898 856.709 45.0898C848.133 45.0898 841.076 48.3418 835.535 54.8457C830.043 61.3014 827.297 71.0332 827.297 84.041C827.297 97.1452 830.284 106.419 836.258 111.863C842.232 117.307 849.025 120.029 856.637 120.029C864.104 120.029 870.223 117.885 874.992 113.598C879.762 109.262 882.701 103.601 883.809 96.6152H859.166V78.8379H903.537V136H888.795L886.555 122.703C882.267 127.762 878.413 131.327 874.992 133.398C869.115 137.012 861.888 138.818 853.312 138.818C839.197 138.818 827.634 133.928 818.625 124.148C809.23 114.32 804.533 100.879 804.533 83.8242C804.533 66.5768 809.279 52.75 818.77 42.3438C828.26 31.9375 840.811 26.7344 856.42 26.7344C869.958 26.7344 880.822 30.179 889.012 37.0684C897.25 43.9095 901.971 52.4609 903.176 62.7227H881.279ZM1002.25 29.4805V48.3418H970.383V136H947.98V48.3418H915.967V29.4805H1002.25ZM1059.85 120.102C1068.66 120.102 1075.65 116.85 1080.8 110.346C1086.01 103.842 1088.61 94.5918 1088.61 82.5957C1088.61 70.6478 1086.01 61.4219 1080.8 54.918C1075.65 48.3659 1068.66 45.0898 1059.85 45.0898C1051.03 45.0898 1044 48.3418 1038.75 54.8457C1033.49 61.3496 1030.87 70.5996 1030.87 82.5957C1030.87 94.5918 1033.49 103.842 1038.75 110.346C1044 116.85 1051.03 120.102 1059.85 120.102ZM1110.87 82.5957C1110.87 101.722 1105.5 116.368 1094.75 126.533C1086.71 134.82 1075.07 138.963 1059.85 138.963C1044.62 138.963 1032.99 134.82 1024.94 126.533C1014.15 116.368 1008.76 101.722 1008.76 82.5957C1008.76 63.084 1014.15 48.4382 1024.94 38.6582C1032.99 30.3717 1044.62 26.2285 1059.85 26.2285C1075.07 26.2285 1086.71 30.3717 1094.75 38.6582C1105.5 48.4382 1110.87 63.084 1110.87 82.5957ZM1127.56 29.4805H1150.9L1193.32 103.842V29.4805H1214.06V136H1191.8L1148.3 60.3379V136H1127.56V29.4805ZM1292.18 103.119C1292.86 107.985 1294.18 111.622 1296.16 114.031C1299.77 118.415 1305.96 120.607 1314.73 120.607C1319.98 120.607 1324.24 120.029 1327.52 118.873C1333.73 116.657 1336.84 112.538 1336.84 106.516C1336.84 102.999 1335.3 100.277 1332.22 98.3496C1329.13 96.4707 1324.29 94.8086 1317.69 93.3633L1306.42 90.834C1295.34 88.3288 1287.68 85.6068 1283.44 82.668C1276.26 77.7539 1272.67 70.0697 1272.67 59.6152C1272.67 50.0762 1276.14 42.151 1283.08 35.8398C1290.01 29.5286 1300.2 26.373 1313.64 26.373C1324.87 26.373 1334.43 29.36 1342.33 35.334C1350.28 41.2598 1354.45 49.8835 1354.84 61.2051H1333.45C1333.06 54.7975 1330.27 50.2448 1325.06 47.5469C1321.59 45.7643 1317.28 44.873 1312.13 44.873C1306.39 44.873 1301.82 46.0293 1298.4 48.3418C1294.98 50.6543 1293.27 53.8822 1293.27 58.0254C1293.27 61.8314 1294.95 64.6738 1298.32 66.5527C1300.49 67.8053 1305.12 69.2747 1312.2 70.9609L1330.55 75.3691C1338.6 77.2962 1344.67 79.8737 1348.77 83.1016C1355.12 88.112 1358.3 95.3626 1358.3 104.854C1358.3 114.585 1354.57 122.679 1347.1 129.135C1339.68 135.542 1329.18 138.746 1315.6 138.746C1301.72 138.746 1290.81 135.59 1282.86 129.279C1274.91 122.92 1270.94 114.2 1270.94 103.119H1292.18ZM1421.68 120.102C1424.24 120.102 1426.69 119.788 1429.05 119.162C1430.35 118.825 1432.02 118.223 1434.04 117.355L1423.27 107.094L1434.76 95.0977L1445.53 105.359C1447.22 101.891 1448.4 98.8555 1449.07 96.2539C1450.13 92.3516 1450.66 87.7988 1450.66 82.5957C1450.66 70.6478 1448.2 61.4219 1443.29 54.918C1438.42 48.3659 1431.29 45.0898 1421.9 45.0898C1413.08 45.0898 1406.05 48.2214 1400.8 54.4844C1395.55 60.7474 1392.92 70.1178 1392.92 82.5957C1392.92 97.1934 1396.68 107.648 1404.19 113.959C1409.06 118.054 1414.89 120.102 1421.68 120.102ZM1472.92 81.0059C1472.92 90.4967 1471.76 98.446 1469.45 104.854C1467.57 110.972 1464.8 116.055 1461.14 120.102L1473.42 131.592L1461.79 143.732L1448.93 131.592C1445.02 133.952 1441.65 135.615 1438.81 136.578C1434.04 138.168 1428.33 138.963 1421.68 138.963C1407.81 138.963 1396.34 134.82 1387.28 126.533C1376.3 116.561 1370.81 101.915 1370.81 82.5957C1370.81 63.1322 1376.44 48.4141 1387.72 38.4414C1396.92 30.2995 1408.36 26.2285 1422.04 26.2285C1435.82 26.2285 1447.38 30.5404 1456.73 39.1641C1467.52 49.1367 1472.92 63.084 1472.92 81.0059ZM1547.28 103.119C1547.95 107.985 1549.28 111.622 1551.25 114.031C1554.87 118.415 1561.06 120.607 1569.83 120.607C1575.08 120.607 1579.34 120.029 1582.62 118.873C1588.83 116.657 1591.94 112.538 1591.94 106.516C1591.94 102.999 1590.4 100.277 1587.31 98.3496C1584.23 96.4707 1579.39 94.8086 1572.79 93.3633L1561.52 90.834C1550.43 88.3288 1542.77 85.6068 1538.54 82.668C1531.36 77.7539 1527.77 70.0697 1527.77 59.6152C1527.77 50.0762 1531.24 42.151 1538.17 35.8398C1545.11 29.5286 1555.3 26.373 1568.74 26.373C1579.97 26.373 1589.53 29.36 1597.43 35.334C1605.38 41.2598 1609.55 49.8835 1609.93 61.2051H1588.54C1588.16 54.7975 1585.36 50.2448 1580.16 47.5469C1576.69 45.7643 1572.38 44.873 1567.22 44.873C1561.49 44.873 1556.91 46.0293 1553.49 48.3418C1550.07 50.6543 1548.36 53.8822 1548.36 58.0254C1548.36 61.8314 1550.05 64.6738 1553.42 66.5527C1555.59 67.8053 1560.21 69.2747 1567.3 70.9609L1585.65 75.3691C1593.7 77.2962 1599.77 79.8737 1603.86 83.1016C1610.22 88.112 1613.4 95.3626 1613.4 104.854C1613.4 114.585 1609.67 122.679 1602.2 129.135C1594.78 135.542 1584.28 138.746 1570.69 138.746C1556.82 138.746 1545.91 135.59 1537.96 129.279C1530.01 122.92 1526.03 114.2 1526.03 103.119H1547.28Z" fill="#333333"/>
</svg>
