<svg width="1680" height="1050" viewBox="0 0 1680 1050" fill="none" xmlns="http://www.w3.org/2000/svg">
<path d="M4.4082 508.07C4.4082 496.845 7.63607 487.764 14.0918 480.826C20.5957 473.84 29.0267 470.348 39.3848 470.348C55.3314 470.348 66.2676 477.406 72.1934 491.521C75.5658 499.519 77.252 510.046 77.252 523.102C77.252 535.772 75.638 546.347 72.4102 554.826C66.2435 570.965 54.9219 579.035 38.4453 579.035C30.5924 579.035 23.5345 576.723 17.2715 572.098C11.0085 567.424 7.41927 560.632 6.50391 551.719H27.0273C27.5091 554.802 28.8099 557.307 30.9297 559.234C33.0495 561.161 35.8678 562.125 39.3848 562.125C46.1777 562.125 50.9473 558.367 53.6934 550.852C55.1868 546.708 56.1263 540.662 56.5117 532.713C54.6328 535.074 52.6335 536.88 50.5137 538.133C46.6595 540.445 41.9141 541.602 36.2773 541.602C27.9427 541.602 20.5475 538.735 14.0918 533.002C7.63607 527.221 4.4082 518.91 4.4082 508.07ZM40.7578 524.836C43.6003 524.836 46.2741 524.017 48.7793 522.379C53.4525 519.392 55.7891 514.213 55.7891 506.842C55.7891 500.916 54.3919 496.219 51.5977 492.75C48.8516 489.281 45.0697 487.547 40.252 487.547C36.735 487.547 33.724 488.535 31.2188 490.51C27.2682 493.593 25.293 498.82 25.293 506.191C25.293 512.406 26.5456 517.079 29.0508 520.211C31.6042 523.294 35.5065 524.836 40.7578 524.836ZM160.43 488.703C157.346 491.738 153.059 497.158 147.566 504.963C142.074 512.719 137.473 520.741 133.764 529.027C130.825 535.531 128.175 543.48 125.814 552.875C123.454 562.27 122.273 569.978 122.273 576H100.883C101.509 557.211 107.676 537.675 119.383 517.393C126.947 504.818 133.282 496.05 138.389 491.088H86.1406L86.4297 472.588H160.43V488.703ZM288.846 502.723C287.16 495.448 283.04 490.365 276.488 487.475C272.827 485.885 268.756 485.09 264.275 485.09C255.7 485.09 248.642 488.342 243.102 494.846C237.609 501.301 234.863 511.033 234.863 524.041C234.863 537.145 237.85 546.419 243.824 551.863C249.798 557.307 256.591 560.029 264.203 560.029C271.671 560.029 277.789 557.885 282.559 553.598C287.328 549.262 290.267 543.601 291.375 536.615H266.732V518.838H311.104V576H296.361L294.121 562.703C289.833 567.762 285.979 571.327 282.559 573.398C276.681 577.012 269.454 578.818 260.879 578.818C246.763 578.818 235.201 573.928 226.191 564.148C216.797 554.32 212.1 540.879 212.1 523.824C212.1 506.577 216.845 492.75 226.336 482.344C235.827 471.938 248.377 466.734 263.986 466.734C277.524 466.734 288.388 470.179 296.578 477.068C304.816 483.91 309.538 492.461 310.742 502.723H288.846ZM354.68 487.98V516.598H379.9C384.911 516.598 388.669 516.02 391.174 514.863C395.606 512.84 397.822 508.841 397.822 502.867C397.822 496.411 395.678 492.076 391.391 489.859C388.982 488.607 385.368 487.98 380.551 487.98H354.68ZM385.176 469.48C392.643 469.625 398.376 470.54 402.375 472.227C406.422 473.913 409.842 476.394 412.637 479.67C414.949 482.368 416.78 485.355 418.129 488.631C419.478 491.907 420.152 495.641 420.152 499.832C420.152 504.891 418.876 509.877 416.322 514.791C413.769 519.657 409.553 523.102 403.676 525.125C408.59 527.1 412.059 529.919 414.082 533.58C416.154 537.193 417.189 542.734 417.189 550.201V557.355C417.189 562.221 417.382 565.521 417.768 567.256C418.346 570.002 419.695 572.025 421.814 573.326V576H397.316C396.642 573.639 396.16 571.736 395.871 570.291C395.293 567.304 394.98 564.245 394.932 561.113L394.787 551.213C394.691 544.42 393.438 539.891 391.029 537.627C388.669 535.363 384.212 534.23 377.66 534.23H354.68V576H332.928V469.48H385.176ZM518.145 488.342H461.777V510.961H513.52V529.461H461.777V556.85H520.746V576H440.025V469.48H518.145V488.342ZM616.859 488.342H560.492V510.961H612.234V529.461H560.492V556.85H619.461V576H538.74V469.48H616.859V488.342ZM636.443 469.48H659.785L702.205 543.842V469.48H722.945V576H700.688L657.184 500.338V576H636.443V469.48ZM758.283 469.48L772.375 530.473L775.41 547.455L778.518 530.834L790.514 469.48H814L826.646 530.473L829.898 547.455L833.15 531.123L847.387 469.48H870.006L840.016 576H818.77L805.906 513.707L802.148 493.111L798.391 513.707L785.527 576H764.859L734.652 469.48H758.283ZM903.898 576H881.785V469.48H903.898V576ZM920.086 523.607C920.086 505.011 925.072 490.678 935.045 480.609C943.717 471.841 954.749 467.457 968.143 467.457C986.064 467.457 999.169 473.335 1007.46 485.09C1012.03 491.69 1014.49 498.314 1014.83 504.963H992.568C991.123 499.856 989.268 496.002 987.004 493.4C982.957 488.775 976.959 486.463 969.01 486.463C960.916 486.463 954.533 489.739 949.859 496.291C945.186 502.795 942.85 512.021 942.85 523.969C942.85 535.917 945.307 544.878 950.221 550.852C955.183 556.777 961.47 559.74 969.082 559.74C976.887 559.74 982.837 557.187 986.932 552.08C989.196 549.334 991.075 545.215 992.568 539.723H1014.61C1012.68 551.333 1007.74 560.776 999.795 568.051C991.894 575.326 981.753 578.963 969.371 578.963C954.051 578.963 942.007 574.049 933.238 564.221C924.47 554.344 920.086 540.807 920.086 523.607ZM1031.52 576V469.48H1053.56V510.094H1095.19V469.48H1117.3V576H1095.19V528.449H1053.56V576H1031.52ZM1203.44 535.748H1230.47L1217.17 493.834L1203.44 535.748ZM1204.81 469.48H1229.96L1267.68 576H1243.55L1236.68 554.104H1197.44L1190.07 576H1166.8L1204.81 469.48ZM1332.65 469.48H1355.78L1319.43 576H1298.4L1262.41 469.48H1286.18L1309.31 550.346L1332.65 469.48ZM1447.77 488.342H1391.4V510.961H1443.14V529.461H1391.4V556.85H1450.37V576H1369.65V469.48H1447.77V488.342Z" fill="#9B670E"/>
</svg>
