<svg width="1680" height="1050" viewBox="0 0 1680 1050" fill="none" xmlns="http://www.w3.org/2000/svg">
<path d="M25.293 545.576C25.293 550.731 26.6178 554.73 29.2676 557.572C31.9655 560.415 35.6751 561.836 40.3965 561.836C45.1178 561.836 48.8034 560.415 51.4531 557.572C54.151 554.73 55.5 550.731 55.5 545.576C55.5 540.229 54.127 536.182 51.3809 533.436C48.6829 530.641 45.0215 529.244 40.3965 529.244C35.7715 529.244 32.0859 530.641 29.3398 533.436C26.6419 536.182 25.293 540.229 25.293 545.576ZM3.90234 546.949C3.90234 541.072 5.22721 535.748 7.87695 530.979C10.5749 526.209 14.5013 522.62 19.6562 520.211C14.5977 516.839 11.2975 513.201 9.75586 509.299C8.26237 505.348 7.51562 501.663 7.51562 498.242C7.51562 490.63 10.3822 484.15 16.1152 478.803C21.8483 473.407 29.9421 470.709 40.3965 470.709C50.8509 470.709 58.9447 473.407 64.6777 478.803C70.4108 484.15 73.2773 490.63 73.2773 498.242C73.2773 501.663 72.5065 505.348 70.9648 509.299C69.4714 513.201 66.1953 516.598 61.1367 519.488C66.2917 522.379 70.1699 526.209 72.7715 530.979C75.373 535.748 76.6738 541.072 76.6738 546.949C76.6738 555.766 73.3978 563.281 66.8457 569.496C60.3418 575.663 51.2363 578.746 39.5293 578.746C27.8223 578.746 18.9577 575.663 12.9355 569.496C6.91341 563.281 3.90234 555.766 3.90234 546.949ZM27.1719 500.555C27.1719 504.361 28.3281 507.468 30.6406 509.877C33.0013 512.286 36.2533 513.49 40.3965 513.49C44.5879 513.49 47.8158 512.286 50.0801 509.877C52.3926 507.468 53.5488 504.361 53.5488 500.555C53.5488 496.411 52.3926 493.184 50.0801 490.871C47.8158 488.51 44.5879 487.33 40.3965 487.33C36.2533 487.33 33.0013 488.51 30.6406 490.871C28.3281 493.184 27.1719 496.411 27.1719 500.555ZM92.6445 503.734V489.715C99.1484 489.426 103.701 488.992 106.303 488.414C110.446 487.499 113.818 485.668 116.42 482.922C118.202 481.043 119.551 478.538 120.467 475.406C120.997 473.527 121.262 472.13 121.262 471.215H138.389V576H117.287V503.734H92.6445ZM231.25 545.576C231.25 550.731 232.575 554.73 235.225 557.572C237.923 560.415 241.632 561.836 246.354 561.836C251.075 561.836 254.76 560.415 257.41 557.572C260.108 554.73 261.457 550.731 261.457 545.576C261.457 540.229 260.084 536.182 257.338 533.436C254.64 530.641 250.979 529.244 246.354 529.244C241.729 529.244 238.043 530.641 235.297 533.436C232.599 536.182 231.25 540.229 231.25 545.576ZM209.859 546.949C209.859 541.072 211.184 535.748 213.834 530.979C216.532 526.209 220.458 522.62 225.613 520.211C220.555 516.839 217.255 513.201 215.713 509.299C214.219 505.348 213.473 501.663 213.473 498.242C213.473 490.63 216.339 484.15 222.072 478.803C227.805 473.407 235.899 470.709 246.354 470.709C256.808 470.709 264.902 473.407 270.635 478.803C276.368 484.15 279.234 490.63 279.234 498.242C279.234 501.663 278.464 505.348 276.922 509.299C275.428 513.201 272.152 516.598 267.094 519.488C272.249 522.379 276.127 526.209 278.729 530.979C281.33 535.748 282.631 541.072 282.631 546.949C282.631 555.766 279.355 563.281 272.803 569.496C266.299 575.663 257.193 578.746 245.486 578.746C233.779 578.746 224.915 575.663 218.893 569.496C212.87 563.281 209.859 555.766 209.859 546.949ZM233.129 500.555C233.129 504.361 234.285 507.468 236.598 509.877C238.958 512.286 242.21 513.49 246.354 513.49C250.545 513.49 253.773 512.286 256.037 509.877C258.35 507.468 259.506 504.361 259.506 500.555C259.506 496.411 258.35 493.184 256.037 490.871C253.773 488.51 250.545 487.33 246.354 487.33C242.21 487.33 238.958 488.51 236.598 490.871C234.285 493.184 233.129 496.411 233.129 500.555ZM377.01 469.48V488.342H345.141V576H322.738V488.342H290.725V469.48H377.01ZM389.945 576V469.48H411.986V510.094H453.611V469.48H475.725V576H453.611V528.449H411.986V576H389.945ZM561.865 535.748H588.893L575.596 493.834L561.865 535.748ZM563.238 469.48H588.387L626.109 576H601.973L595.107 554.104H555.867L548.496 576H525.227L563.238 469.48ZM691.076 469.48H714.201L677.852 576H656.822L620.834 469.48H644.609L667.734 550.346L691.076 469.48ZM806.195 488.342H749.828V510.961H801.57V529.461H749.828V556.85H808.797V576H728.076V469.48H806.195V488.342Z" fill="#9B670E"/>
</svg>
