<svg width="1680" height="1050" viewBox="0 0 1680 1050" fill="none" xmlns="http://www.w3.org/2000/svg">
<path d="M77.3965 113.453H65.5449V136H45.3828V113.453H3.90234V95.459L42.4199 31.8652H65.5449V97.3379H77.3965V113.453ZM45.3828 97.3379V52.0996L19.1504 97.3379H45.3828ZM149.373 29.4805L163.465 90.4727L166.5 107.455L169.607 90.834L181.604 29.4805H205.09L217.736 90.4727L220.988 107.455L224.24 91.123L238.477 29.4805H261.096L231.105 136H209.859L196.996 73.707L193.238 53.1113L189.48 73.707L176.617 136H155.949L125.742 29.4805H149.373ZM381.924 113.453H370.072V136H349.91V113.453H308.43V95.459L346.947 31.8652H370.072V97.3379H381.924V113.453ZM349.91 97.3379V52.0996L323.678 97.3379H349.91ZM475.58 29.4805V48.3418H443.711V136H421.309V48.3418H389.295V29.4805H475.58ZM488.516 136V29.4805H510.557V70.0938H552.182V29.4805H574.295V136H552.182V88.4492H510.557V136H488.516ZM652.92 103.119C653.594 107.985 654.919 111.622 656.895 114.031C660.508 118.415 666.699 120.607 675.467 120.607C680.718 120.607 684.982 120.029 688.258 118.873C694.473 116.657 697.58 112.538 697.58 106.516C697.58 102.999 696.038 100.277 692.955 98.3496C689.872 96.4707 685.03 94.8086 678.43 93.3633L667.156 90.834C656.076 88.3288 648.415 85.6068 644.176 82.668C636.997 77.7539 633.408 70.0697 633.408 59.6152C633.408 50.0762 636.877 42.151 643.814 35.8398C650.752 29.5286 660.941 26.373 674.383 26.373C685.608 26.373 695.171 29.36 703.072 35.334C711.021 41.2598 715.189 49.8835 715.574 61.2051H694.184C693.798 54.7975 691.004 50.2448 685.801 47.5469C682.332 45.7643 678.02 44.873 672.865 44.873C667.132 44.873 662.555 46.0293 659.135 48.3418C655.714 50.6543 654.004 53.8822 654.004 58.0254C654.004 61.8314 655.69 64.6738 659.062 66.5527C661.23 67.8053 665.855 69.2747 672.938 70.9609L691.293 75.3691C699.339 77.2962 705.409 79.8737 709.504 83.1016C715.863 88.112 719.043 95.3626 719.043 104.854C719.043 114.585 715.309 122.679 707.842 129.135C700.423 135.542 689.92 138.746 676.334 138.746C662.459 138.746 651.547 135.59 643.598 129.279C635.648 122.92 631.674 114.2 631.674 103.119H652.92ZM812.916 29.4805V48.3418H781.047V136H758.645V48.3418H726.631V29.4805H812.916Z" fill="#333333"/>
</svg>
