<svg width="1680" height="1050" viewBox="0 0 1680 1050" fill="none" xmlns="http://www.w3.org/2000/svg">
<path d="M25.293 105.576C25.293 110.731 26.6178 114.73 29.2676 117.572C31.9655 120.415 35.6751 121.836 40.3965 121.836C45.1178 121.836 48.8034 120.415 51.4531 117.572C54.151 114.73 55.5 110.731 55.5 105.576C55.5 100.229 54.127 96.1816 51.3809 93.4355C48.6829 90.6413 45.0215 89.2441 40.3965 89.2441C35.7715 89.2441 32.0859 90.6413 29.3398 93.4355C26.6419 96.1816 25.293 100.229 25.293 105.576ZM3.90234 106.949C3.90234 101.072 5.22721 95.748 7.87695 90.9785C10.5749 86.209 14.5013 82.6198 19.6562 80.2109C14.5977 76.8385 11.2975 73.2012 9.75586 69.2988C8.26237 65.3483 7.51562 61.6628 7.51562 58.2422C7.51562 50.6302 10.3822 44.1504 16.1152 38.8027C21.8483 33.4069 29.9421 30.709 40.3965 30.709C50.8509 30.709 58.9447 33.4069 64.6777 38.8027C70.4108 44.1504 73.2773 50.6302 73.2773 58.2422C73.2773 61.6628 72.5065 65.3483 70.9648 69.2988C69.4714 73.2012 66.1953 76.5977 61.1367 79.4883C66.2917 82.3789 70.1699 86.209 72.7715 90.9785C75.373 95.748 76.6738 101.072 76.6738 106.949C76.6738 115.766 73.3978 123.281 66.8457 129.496C60.3418 135.663 51.2363 138.746 39.5293 138.746C27.8223 138.746 18.9577 135.663 12.9355 129.496C6.91341 123.281 3.90234 115.766 3.90234 106.949ZM27.1719 60.5547C27.1719 64.3607 28.3281 67.4681 30.6406 69.877C33.0013 72.2858 36.2533 73.4902 40.3965 73.4902C44.5879 73.4902 47.8158 72.2858 50.0801 69.877C52.3926 67.4681 53.5488 64.3607 53.5488 60.5547C53.5488 56.4115 52.3926 53.1836 50.0801 50.8711C47.8158 48.5104 44.5879 47.3301 40.3965 47.3301C36.2533 47.3301 33.0013 48.5104 30.6406 50.8711C28.3281 53.1836 27.1719 56.4115 27.1719 60.5547ZM92.6445 63.7344V49.7148C99.1484 49.4258 103.701 48.9922 106.303 48.4141C110.446 47.4987 113.818 45.668 116.42 42.9219C118.202 41.043 119.551 38.5378 120.467 35.4062C120.997 33.5273 121.262 32.1302 121.262 31.2148H138.389V136H117.287V63.7344H92.6445ZM231.25 105.576C231.25 110.731 232.575 114.73 235.225 117.572C237.923 120.415 241.632 121.836 246.354 121.836C251.075 121.836 254.76 120.415 257.41 117.572C260.108 114.73 261.457 110.731 261.457 105.576C261.457 100.229 260.084 96.1816 257.338 93.4355C254.64 90.6413 250.979 89.2441 246.354 89.2441C241.729 89.2441 238.043 90.6413 235.297 93.4355C232.599 96.1816 231.25 100.229 231.25 105.576ZM209.859 106.949C209.859 101.072 211.184 95.748 213.834 90.9785C216.532 86.209 220.458 82.6198 225.613 80.2109C220.555 76.8385 217.255 73.2012 215.713 69.2988C214.219 65.3483 213.473 61.6628 213.473 58.2422C213.473 50.6302 216.339 44.1504 222.072 38.8027C227.805 33.4069 235.899 30.709 246.354 30.709C256.808 30.709 264.902 33.4069 270.635 38.8027C276.368 44.1504 279.234 50.6302 279.234 58.2422C279.234 61.6628 278.464 65.3483 276.922 69.2988C275.428 73.2012 272.152 76.5977 267.094 79.4883C272.249 82.3789 276.127 86.209 278.729 90.9785C281.33 95.748 282.631 101.072 282.631 106.949C282.631 115.766 279.355 123.281 272.803 129.496C266.299 135.663 257.193 138.746 245.486 138.746C233.779 138.746 224.915 135.663 218.893 129.496C212.87 123.281 209.859 115.766 209.859 106.949ZM233.129 60.5547C233.129 64.3607 234.285 67.4681 236.598 69.877C238.958 72.2858 242.21 73.4902 246.354 73.4902C250.545 73.4902 253.773 72.2858 256.037 69.877C258.35 67.4681 259.506 64.3607 259.506 60.5547C259.506 56.4115 258.35 53.1836 256.037 50.8711C253.773 48.5104 250.545 47.3301 246.354 47.3301C242.21 47.3301 238.958 48.5104 236.598 50.8711C234.285 53.1836 233.129 56.4115 233.129 60.5547ZM377.01 29.4805V48.3418H345.141V136H322.738V48.3418H290.725V29.4805H377.01ZM389.945 136V29.4805H411.986V70.0938H453.611V29.4805H475.725V136H453.611V88.4492H411.986V136H389.945ZM561.865 95.748H588.893L575.596 53.834L561.865 95.748ZM563.238 29.4805H588.387L626.109 136H601.973L595.107 114.104H555.867L548.496 136H525.227L563.238 29.4805ZM691.076 29.4805H714.201L677.852 136H656.822L620.834 29.4805H644.609L667.734 110.346L691.076 29.4805ZM806.195 48.3418H749.828V70.9609H801.57V89.4609H749.828V116.85H808.797V136H728.076V29.4805H806.195V48.3418Z" fill="#333333"/>
</svg>
