<svg width="1680" height="1050" viewBox="0 0 1680 1050" fill="none" xmlns="http://www.w3.org/2000/svg">
<path d="M24.1367 543.842C24.1367 548.033 24.8112 551.502 26.1602 554.248C28.6654 559.307 33.2181 561.836 39.8184 561.836C43.8652 561.836 47.3822 560.463 50.3691 557.717C53.4043 554.923 54.9219 550.924 54.9219 545.721C54.9219 538.831 52.1276 534.23 46.5391 531.918C43.3594 530.617 38.349 529.967 31.5078 529.967V515.225C38.2044 515.128 42.8776 514.478 45.5273 513.273C50.1042 511.25 52.3926 507.155 52.3926 500.988C52.3926 496.99 51.2122 493.738 48.8516 491.232C46.5391 488.727 43.263 487.475 39.0234 487.475C34.1576 487.475 30.5684 489.016 28.2559 492.1C25.9915 495.183 24.9076 499.302 25.0039 504.457H5.78125C5.97396 499.254 6.86523 494.316 8.45508 489.643C10.1413 485.548 12.791 481.766 16.4043 478.297C19.1022 475.84 22.306 473.961 26.0156 472.66C29.7253 471.359 34.278 470.709 39.6738 470.709C49.6947 470.709 57.7643 473.311 63.8828 478.514C70.0495 483.669 73.1328 490.606 73.1328 499.326C73.1328 505.493 71.3021 510.696 67.6406 514.936C65.3281 517.585 62.9193 519.392 60.4141 520.355C62.293 520.355 64.9909 521.969 68.5078 525.197C73.7591 530.063 76.3848 536.712 76.3848 545.143C76.3848 554.007 73.3014 561.812 67.1348 568.557C61.0163 575.253 51.9349 578.602 39.8906 578.602C25.0521 578.602 14.7422 573.76 8.96094 564.076C5.92578 558.921 4.23958 552.176 3.90234 543.842H24.1367ZM92.6445 503.734V489.715C99.1484 489.426 103.701 488.992 106.303 488.414C110.446 487.499 113.818 485.668 116.42 482.922C118.202 481.043 119.551 478.538 120.467 475.406C120.997 473.527 121.262 472.13 121.262 471.215H138.389V576H117.287V503.734H92.6445ZM189.191 547.961C190.01 552.441 191.576 555.91 193.889 558.367C196.201 560.776 199.574 561.98 204.006 561.98C209.113 561.98 212.991 560.198 215.641 556.633C218.339 553.02 219.688 548.491 219.688 543.047C219.688 537.699 218.435 533.195 215.93 529.533C213.424 525.824 209.522 523.969 204.223 523.969C201.717 523.969 199.549 524.282 197.719 524.908C194.491 526.064 192.058 528.208 190.42 531.34L171.92 530.473L179.291 472.588H237.031V490.076H194.178L190.42 512.984C193.6 510.913 196.081 509.54 197.863 508.865C200.85 507.757 204.488 507.203 208.775 507.203C217.447 507.203 225.011 510.118 231.467 515.947C237.923 521.777 241.15 530.256 241.15 541.385C241.15 551.068 238.043 559.716 231.828 567.328C225.613 574.94 216.315 578.746 203.934 578.746C193.961 578.746 185.771 576.072 179.363 570.725C172.956 565.377 169.391 557.789 168.668 547.961H189.191ZM321.221 487.98V511.467H347.381C352.054 511.467 355.836 510.6 358.727 508.865C361.665 507.083 363.135 503.951 363.135 499.471C363.135 494.508 361.208 491.232 357.354 489.643C354.029 488.535 349.79 487.98 344.635 487.98H321.221ZM321.221 529.1V557.5H347.381C352.054 557.5 355.691 556.874 358.293 555.621C363.014 553.309 365.375 548.876 365.375 542.324C365.375 536.784 363.087 532.978 358.51 530.906C355.956 529.75 352.367 529.148 347.742 529.1H321.221ZM351.717 469.48C364.773 469.673 374.023 473.455 379.467 480.826C382.743 485.355 384.381 490.775 384.381 497.086C384.381 503.59 382.743 508.817 379.467 512.768C377.636 514.984 374.938 517.007 371.373 518.838C376.817 520.813 380.912 523.945 383.658 528.232C386.452 532.52 387.85 537.723 387.85 543.842C387.85 550.153 386.26 555.814 383.08 560.824C381.057 564.148 378.527 566.943 375.492 569.207C372.072 571.809 368.025 573.591 363.352 574.555C358.727 575.518 353.692 576 348.248 576H299.975V469.48H351.717ZM453.684 560.102C462.5 560.102 469.486 556.85 474.641 550.346C479.844 543.842 482.445 534.592 482.445 522.596C482.445 510.648 479.844 501.422 474.641 494.918C469.486 488.366 462.5 485.09 453.684 485.09C444.867 485.09 437.833 488.342 432.582 494.846C427.331 501.35 424.705 510.6 424.705 522.596C424.705 534.592 427.331 543.842 432.582 550.346C437.833 556.85 444.867 560.102 453.684 560.102ZM504.703 522.596C504.703 541.722 499.331 556.368 488.588 566.533C480.542 574.82 468.908 578.963 453.684 578.963C438.46 578.963 426.825 574.82 418.779 566.533C407.988 556.368 402.592 541.722 402.592 522.596C402.592 503.084 407.988 488.438 418.779 478.658C426.825 470.372 438.46 466.229 453.684 466.229C468.908 466.229 480.542 470.372 488.588 478.658C499.331 488.438 504.703 503.084 504.703 522.596ZM536.283 469.48L550.375 530.473L553.41 547.455L556.518 530.834L568.514 469.48H592L604.646 530.473L607.898 547.455L611.15 531.123L625.387 469.48H648.006L618.016 576H596.77L583.906 513.707L580.148 493.111L576.391 513.707L563.527 576H542.859L512.652 469.48H536.283ZM740.289 488.342H683.922V510.961H735.664V529.461H683.922V556.85H742.891V576H662.17V469.48H740.289V488.342ZM782.492 487.98V516.598H807.713C812.723 516.598 816.481 516.02 818.986 514.863C823.419 512.84 825.635 508.841 825.635 502.867C825.635 496.411 823.491 492.076 819.203 489.859C816.794 488.607 813.181 487.98 808.363 487.98H782.492ZM812.988 469.48C820.456 469.625 826.189 470.54 830.188 472.227C834.234 473.913 837.655 476.394 840.449 479.67C842.762 482.368 844.592 485.355 845.941 488.631C847.29 491.907 847.965 495.641 847.965 499.832C847.965 504.891 846.688 509.877 844.135 514.791C841.581 519.657 837.366 523.102 831.488 525.125C836.402 527.1 839.871 529.919 841.895 533.58C843.966 537.193 845.002 542.734 845.002 550.201V557.355C845.002 562.221 845.195 565.521 845.58 567.256C846.158 570.002 847.507 572.025 849.627 573.326V576H825.129C824.454 573.639 823.973 571.736 823.684 570.291C823.105 567.304 822.792 564.245 822.744 561.113L822.6 551.213C822.503 544.42 821.251 539.891 818.842 537.627C816.481 535.363 812.025 534.23 805.473 534.23H782.492V576H760.74V469.48H812.988ZM922.471 469.48H947.691L912.064 535.965V576H889.807V535.965L852.951 469.48H879.184L901.297 515.875L922.471 469.48ZM1015.12 543.119C1015.79 547.985 1017.11 551.622 1019.09 554.031C1022.7 558.415 1028.89 560.607 1037.66 560.607C1042.91 560.607 1047.18 560.029 1050.45 558.873C1056.67 556.657 1059.78 552.538 1059.78 546.516C1059.78 542.999 1058.23 540.277 1055.15 538.35C1052.07 536.471 1047.23 534.809 1040.62 533.363L1029.35 530.834C1018.27 528.329 1010.61 525.607 1006.37 522.668C999.193 517.754 995.604 510.07 995.604 499.615C995.604 490.076 999.072 482.151 1006.01 475.84C1012.95 469.529 1023.14 466.373 1036.58 466.373C1047.8 466.373 1057.37 469.36 1065.27 475.334C1073.22 481.26 1077.38 489.883 1077.77 501.205H1056.38C1055.99 494.798 1053.2 490.245 1048 487.547C1044.53 485.764 1040.22 484.873 1035.06 484.873C1029.33 484.873 1024.75 486.029 1021.33 488.342C1017.91 490.654 1016.2 493.882 1016.2 498.025C1016.2 501.831 1017.89 504.674 1021.26 506.553C1023.43 507.805 1028.05 509.275 1035.13 510.961L1053.49 515.369C1061.53 517.296 1067.6 519.874 1071.7 523.102C1078.06 528.112 1081.24 535.363 1081.24 544.854C1081.24 554.585 1077.5 562.679 1070.04 569.135C1062.62 575.542 1052.12 578.746 1038.53 578.746C1024.65 578.746 1013.74 575.59 1005.79 569.279C997.844 562.92 993.869 554.2 993.869 543.119H1015.12ZM1175.11 469.48V488.342H1143.24V576H1120.84V488.342H1088.83V469.48H1175.11Z" fill="#9B670E"/>
</svg>
