<svg width="1680" height="1050" viewBox="0 0 1680 1050" fill="none" xmlns="http://www.w3.org/2000/svg">
<path d="M24.4258 547.961C25.2448 552.441 26.8105 555.91 29.123 558.367C31.4355 560.776 34.8079 561.98 39.2402 561.98C44.347 561.98 48.2253 560.198 50.875 556.633C53.5729 553.02 54.9219 548.491 54.9219 543.047C54.9219 537.699 53.6693 533.195 51.1641 529.533C48.6589 525.824 44.7565 523.969 39.457 523.969C36.9518 523.969 34.7839 524.282 32.9531 524.908C29.7253 526.064 27.2923 528.208 25.6543 531.34L7.1543 530.473L14.5254 472.588H72.2656V490.076H29.4121L25.6543 512.984C28.834 510.913 31.3151 509.54 33.0977 508.865C36.0846 507.757 39.722 507.203 44.0098 507.203C52.6816 507.203 60.2454 510.118 66.7012 515.947C73.1569 521.777 76.3848 530.256 76.3848 541.385C76.3848 551.068 73.2773 559.716 67.0625 567.328C60.8477 574.94 51.5495 578.746 39.168 578.746C29.1953 578.746 21.0052 576.072 14.5977 570.725C8.1901 565.377 4.625 557.789 3.90234 547.961H24.4258ZM107.676 542.83C107.676 548.467 109.193 553.068 112.229 556.633C115.264 560.198 119.118 561.98 123.791 561.98C128.368 561.98 131.957 560.27 134.559 556.85C137.208 553.381 138.533 548.9 138.533 543.408C138.533 537.29 137.04 532.617 134.053 529.389C131.066 526.113 127.404 524.475 123.068 524.475C119.551 524.475 116.444 525.535 113.746 527.654C109.699 530.786 107.676 535.844 107.676 542.83ZM136.654 497.592C136.654 495.906 136.004 494.051 134.703 492.027C132.487 488.751 129.139 487.113 124.658 487.113C117.962 487.113 113.192 490.871 110.35 498.387C108.808 502.53 107.748 508.648 107.17 516.742C109.723 513.707 112.686 511.491 116.059 510.094C119.431 508.697 123.285 507.998 127.621 507.998C136.919 507.998 144.531 511.154 150.457 517.465C156.431 523.776 159.418 531.846 159.418 541.674C159.418 551.454 156.503 560.077 150.674 567.545C144.844 575.012 135.787 578.746 123.502 578.746C110.301 578.746 100.57 573.23 94.3066 562.197C89.4408 553.574 87.0078 542.445 87.0078 528.811C87.0078 520.813 87.3451 514.309 88.0195 509.299C89.224 500.386 91.5605 492.967 95.0293 487.041C98.0163 481.982 101.919 477.911 106.736 474.828C111.602 471.745 117.408 470.203 124.152 470.203C133.884 470.203 141.641 472.708 147.422 477.719C153.203 482.681 156.455 489.305 157.178 497.592H136.654ZM288.846 502.723C287.16 495.448 283.04 490.365 276.488 487.475C272.827 485.885 268.756 485.09 264.275 485.09C255.7 485.09 248.642 488.342 243.102 494.846C237.609 501.301 234.863 511.033 234.863 524.041C234.863 537.145 237.85 546.419 243.824 551.863C249.798 557.307 256.591 560.029 264.203 560.029C271.671 560.029 277.789 557.885 282.559 553.598C287.328 549.262 290.267 543.601 291.375 536.615H266.732V518.838H311.104V576H296.361L294.121 562.703C289.833 567.762 285.979 571.327 282.559 573.398C276.681 577.012 269.454 578.818 260.879 578.818C246.763 578.818 235.201 573.928 226.191 564.148C216.797 554.32 212.1 540.879 212.1 523.824C212.1 506.577 216.845 492.75 226.336 482.344C235.827 471.938 248.377 466.734 263.986 466.734C277.524 466.734 288.388 470.179 296.578 477.068C304.816 483.91 309.538 492.461 310.742 502.723H288.846ZM354.68 487.98V516.598H379.9C384.911 516.598 388.669 516.02 391.174 514.863C395.606 512.84 397.822 508.841 397.822 502.867C397.822 496.411 395.678 492.076 391.391 489.859C388.982 488.607 385.368 487.98 380.551 487.98H354.68ZM385.176 469.48C392.643 469.625 398.376 470.54 402.375 472.227C406.422 473.913 409.842 476.394 412.637 479.67C414.949 482.368 416.78 485.355 418.129 488.631C419.478 491.907 420.152 495.641 420.152 499.832C420.152 504.891 418.876 509.877 416.322 514.791C413.769 519.657 409.553 523.102 403.676 525.125C408.59 527.1 412.059 529.919 414.082 533.58C416.154 537.193 417.189 542.734 417.189 550.201V557.355C417.189 562.221 417.382 565.521 417.768 567.256C418.346 570.002 419.695 572.025 421.814 573.326V576H397.316C396.642 573.639 396.16 571.736 395.871 570.291C395.293 567.304 394.98 564.245 394.932 561.113L394.787 551.213C394.691 544.42 393.438 539.891 391.029 537.627C388.669 535.363 384.212 534.23 377.66 534.23H354.68V576H332.928V469.48H385.176ZM518.145 488.342H461.777V510.961H513.52V529.461H461.777V556.85H520.746V576H440.025V469.48H518.145V488.342ZM616.859 488.342H560.492V510.961H612.234V529.461H560.492V556.85H619.461V576H538.74V469.48H616.859V488.342ZM636.443 469.48H659.785L702.205 543.842V469.48H722.945V576H700.688L657.184 500.338V576H636.443V469.48ZM758.283 469.48L772.375 530.473L775.41 547.455L778.518 530.834L790.514 469.48H814L826.646 530.473L829.898 547.455L833.15 531.123L847.387 469.48H870.006L840.016 576H818.77L805.906 513.707L802.148 493.111L798.391 513.707L785.527 576H764.859L734.652 469.48H758.283ZM903.898 576H881.785V469.48H903.898V576ZM920.086 523.607C920.086 505.011 925.072 490.678 935.045 480.609C943.717 471.841 954.749 467.457 968.143 467.457C986.064 467.457 999.169 473.335 1007.46 485.09C1012.03 491.69 1014.49 498.314 1014.83 504.963H992.568C991.123 499.856 989.268 496.002 987.004 493.4C982.957 488.775 976.959 486.463 969.01 486.463C960.916 486.463 954.533 489.739 949.859 496.291C945.186 502.795 942.85 512.021 942.85 523.969C942.85 535.917 945.307 544.878 950.221 550.852C955.183 556.777 961.47 559.74 969.082 559.74C976.887 559.74 982.837 557.187 986.932 552.08C989.196 549.334 991.075 545.215 992.568 539.723H1014.61C1012.68 551.333 1007.74 560.776 999.795 568.051C991.894 575.326 981.753 578.963 969.371 578.963C954.051 578.963 942.007 574.049 933.238 564.221C924.47 554.344 920.086 540.807 920.086 523.607ZM1031.52 576V469.48H1053.56V510.094H1095.19V469.48H1117.3V576H1095.19V528.449H1053.56V576H1031.52ZM1203.44 535.748H1230.47L1217.17 493.834L1203.44 535.748ZM1204.81 469.48H1229.96L1267.68 576H1243.55L1236.68 554.104H1197.44L1190.07 576H1166.8L1204.81 469.48ZM1332.65 469.48H1355.78L1319.43 576H1298.4L1262.41 469.48H1286.18L1309.31 550.346L1332.65 469.48ZM1447.77 488.342H1391.4V510.961H1443.14V529.461H1391.4V556.85H1450.37V576H1369.65V469.48H1447.77V488.342Z" fill="#9B670E"/>
</svg>
