<svg width="1680" height="1050" viewBox="0 0 1680 1050" fill="none" xmlns="http://www.w3.org/2000/svg">
<path d="M77.3965 553.453H65.5449V576H45.3828V553.453H3.90234V535.459L42.4199 471.865H65.5449V537.338H77.3965V553.453ZM45.3828 537.338V492.1L19.1504 537.338H45.3828ZM149.373 469.48L163.465 530.473L166.5 547.455L169.607 530.834L181.604 469.48H205.09L217.736 530.473L220.988 547.455L224.24 531.123L238.477 469.48H261.096L231.105 576H209.859L196.996 513.707L193.238 493.111L189.48 513.707L176.617 576H155.949L125.742 469.48H149.373ZM381.924 553.453H370.072V576H349.91V553.453H308.43V535.459L346.947 471.865H370.072V537.338H381.924V553.453ZM349.91 537.338V492.1L323.678 537.338H349.91ZM475.58 469.48V488.342H443.711V576H421.309V488.342H389.295V469.48H475.58ZM488.516 576V469.48H510.557V510.094H552.182V469.48H574.295V576H552.182V528.449H510.557V576H488.516ZM652.92 543.119C653.594 547.985 654.919 551.622 656.895 554.031C660.508 558.415 666.699 560.607 675.467 560.607C680.718 560.607 684.982 560.029 688.258 558.873C694.473 556.657 697.58 552.538 697.58 546.516C697.58 542.999 696.038 540.277 692.955 538.35C689.872 536.471 685.03 534.809 678.43 533.363L667.156 530.834C656.076 528.329 648.415 525.607 644.176 522.668C636.997 517.754 633.408 510.07 633.408 499.615C633.408 490.076 636.877 482.151 643.814 475.84C650.752 469.529 660.941 466.373 674.383 466.373C685.608 466.373 695.171 469.36 703.072 475.334C711.021 481.26 715.189 489.883 715.574 501.205H694.184C693.798 494.798 691.004 490.245 685.801 487.547C682.332 485.764 678.02 484.873 672.865 484.873C667.132 484.873 662.555 486.029 659.135 488.342C655.714 490.654 654.004 493.882 654.004 498.025C654.004 501.831 655.69 504.674 659.062 506.553C661.23 507.805 665.855 509.275 672.938 510.961L691.293 515.369C699.339 517.296 705.409 519.874 709.504 523.102C715.863 528.112 719.043 535.363 719.043 544.854C719.043 554.585 715.309 562.679 707.842 569.135C700.423 575.542 689.92 578.746 676.334 578.746C662.459 578.746 651.547 575.59 643.598 569.279C635.648 562.92 631.674 554.2 631.674 543.119H652.92ZM812.916 469.48V488.342H781.047V576H758.645V488.342H726.631V469.48H812.916Z" fill="#9B670E"/>
</svg>
