<svg width="1680" height="1050" viewBox="0 0 1680 1050" fill="none" xmlns="http://www.w3.org/2000/svg">
<path d="M24.1367 543.842C24.1367 548.033 24.8112 551.502 26.1602 554.248C28.6654 559.307 33.2181 561.836 39.8184 561.836C43.8652 561.836 47.3822 560.463 50.3691 557.717C53.4043 554.923 54.9219 550.924 54.9219 545.721C54.9219 538.831 52.1276 534.23 46.5391 531.918C43.3594 530.617 38.349 529.967 31.5078 529.967V515.225C38.2044 515.128 42.8776 514.478 45.5273 513.273C50.1042 511.25 52.3926 507.155 52.3926 500.988C52.3926 496.99 51.2122 493.738 48.8516 491.232C46.5391 488.727 43.263 487.475 39.0234 487.475C34.1576 487.475 30.5684 489.016 28.2559 492.1C25.9915 495.183 24.9076 499.302 25.0039 504.457H5.78125C5.97396 499.254 6.86523 494.316 8.45508 489.643C10.1413 485.548 12.791 481.766 16.4043 478.297C19.1022 475.84 22.306 473.961 26.0156 472.66C29.7253 471.359 34.278 470.709 39.6738 470.709C49.6947 470.709 57.7643 473.311 63.8828 478.514C70.0495 483.669 73.1328 490.606 73.1328 499.326C73.1328 505.493 71.3021 510.696 67.6406 514.936C65.3281 517.585 62.9193 519.392 60.4141 520.355C62.293 520.355 64.9909 521.969 68.5078 525.197C73.7591 530.063 76.3848 536.712 76.3848 545.143C76.3848 554.007 73.3014 561.812 67.1348 568.557C61.0163 575.253 51.9349 578.602 39.8906 578.602C25.0521 578.602 14.7422 573.76 8.96094 564.076C5.92578 558.921 4.23958 552.176 3.90234 543.842H24.1367ZM160.43 488.703C157.346 491.738 153.059 497.158 147.566 504.963C142.074 512.719 137.473 520.741 133.764 529.027C130.825 535.531 128.175 543.48 125.814 552.875C123.454 562.27 122.273 569.978 122.273 576H100.883C101.509 557.211 107.676 537.675 119.383 517.393C126.947 504.818 133.282 496.05 138.389 491.088H86.1406L86.4297 472.588H160.43V488.703ZM189.191 547.961C190.01 552.441 191.576 555.91 193.889 558.367C196.201 560.776 199.574 561.98 204.006 561.98C209.113 561.98 212.991 560.198 215.641 556.633C218.339 553.02 219.688 548.491 219.688 543.047C219.688 537.699 218.435 533.195 215.93 529.533C213.424 525.824 209.522 523.969 204.223 523.969C201.717 523.969 199.549 524.282 197.719 524.908C194.491 526.064 192.058 528.208 190.42 531.34L171.92 530.473L179.291 472.588H237.031V490.076H194.178L190.42 512.984C193.6 510.913 196.081 509.54 197.863 508.865C200.85 507.757 204.488 507.203 208.775 507.203C217.447 507.203 225.011 510.118 231.467 515.947C237.923 521.777 241.15 530.256 241.15 541.385C241.15 551.068 238.043 559.716 231.828 567.328C225.613 574.94 216.315 578.746 203.934 578.746C193.961 578.746 185.771 576.072 179.363 570.725C172.956 565.377 169.391 557.789 168.668 547.961H189.191ZM299.613 469.48H321.871V556.85H374.625V576H299.613V469.48ZM419.213 535.748H446.24L432.943 493.834L419.213 535.748ZM420.586 469.48H445.734L483.457 576H459.32L452.455 554.104H413.215L405.844 576H382.574L420.586 469.48ZM497.043 469.625H572.561V488.342H519.156V512.84H565.912V531.34H519.156V576H497.043V469.625ZM608.549 535.748H635.576L622.279 493.834L608.549 535.748ZM609.922 469.48H635.07L672.793 576H648.656L641.791 554.104H602.551L595.18 576H571.91L609.922 469.48ZM733.568 469.48H758.789L723.162 535.965V576H700.904V535.965L664.049 469.48H690.281L712.395 515.875L733.568 469.48ZM850.277 488.342H793.91V510.961H845.652V529.461H793.91V556.85H852.879V576H772.158V469.48H850.277V488.342ZM947.619 469.48V488.342H915.75V576H893.348V488.342H861.334V469.48H947.619ZM1038.1 469.48V488.342H1006.23V576H983.824V488.342H951.811V469.48H1038.1ZM1129.95 488.342H1073.58V510.961H1125.32V529.461H1073.58V556.85H1132.55V576H1051.83V469.48H1129.95V488.342ZM1207.2 543.119C1207.87 547.985 1209.2 551.622 1211.17 554.031C1214.79 558.415 1220.98 560.607 1229.74 560.607C1235 560.607 1239.26 560.029 1242.54 558.873C1248.75 556.657 1251.86 552.538 1251.86 546.516C1251.86 542.999 1250.32 540.277 1247.23 538.35C1244.15 536.471 1239.31 534.809 1232.71 533.363L1221.43 530.834C1210.35 528.329 1202.69 525.607 1198.45 522.668C1191.27 517.754 1187.69 510.07 1187.69 499.615C1187.69 490.076 1191.15 482.151 1198.09 475.84C1205.03 469.529 1215.22 466.373 1228.66 466.373C1239.89 466.373 1249.45 469.36 1257.35 475.334C1265.3 481.26 1269.47 489.883 1269.85 501.205H1248.46C1248.08 494.798 1245.28 490.245 1240.08 487.547C1236.61 485.764 1232.3 484.873 1227.14 484.873C1221.41 484.873 1216.83 486.029 1213.41 488.342C1209.99 490.654 1208.28 493.882 1208.28 498.025C1208.28 501.831 1209.97 504.674 1213.34 506.553C1215.51 507.805 1220.13 509.275 1227.21 510.961L1245.57 515.369C1253.62 517.296 1259.69 519.874 1263.78 523.102C1270.14 528.112 1273.32 535.363 1273.32 544.854C1273.32 554.585 1269.59 562.679 1262.12 569.135C1254.7 575.542 1244.2 578.746 1230.61 578.746C1216.74 578.746 1205.82 575.59 1197.88 569.279C1189.93 562.92 1185.95 554.2 1185.95 543.119H1207.2ZM1367.19 469.48V488.342H1335.32V576H1312.92V488.342H1280.91V469.48H1367.19Z" fill="#9B670E"/>
</svg>
