<svg width="1680" height="1050" viewBox="0 0 1680 1050" fill="none" xmlns="http://www.w3.org/2000/svg">
<path d="M78.0469 488.703C74.9635 491.738 70.6758 497.158 65.1836 504.963C59.6914 512.719 55.0905 520.741 51.3809 529.027C48.4421 535.531 45.7923 543.48 43.4316 552.875C41.071 562.27 39.8906 569.978 39.8906 576H18.5C19.1263 557.211 25.293 537.675 37 517.393C44.5638 504.818 50.8991 496.05 56.0059 491.088H3.75781L4.04688 472.588H78.0469V488.703ZM108.037 524.619C108.037 536.663 109.025 545.889 111 552.297C112.975 558.656 117.022 561.836 123.141 561.836C129.259 561.836 133.258 558.656 135.137 552.297C137.064 545.889 138.027 536.663 138.027 524.619C138.027 511.997 137.064 502.65 135.137 496.58C133.258 490.51 129.259 487.475 123.141 487.475C117.022 487.475 112.975 490.51 111 496.58C109.025 502.65 108.037 511.997 108.037 524.619ZM123.141 470.492C136.486 470.492 145.832 475.189 151.18 484.584C156.576 493.979 159.273 507.324 159.273 524.619C159.273 541.915 156.576 555.236 151.18 564.582C145.832 573.928 136.486 578.602 123.141 578.602C109.796 578.602 100.425 573.928 95.0293 564.582C89.6816 555.236 87.0078 541.915 87.0078 524.619C87.0078 507.324 89.6816 493.979 95.0293 484.584C100.425 475.189 109.796 470.492 123.141 470.492ZM231.756 469.48L245.848 530.473L248.883 547.455L251.99 530.834L263.986 469.48H287.473L300.119 530.473L303.371 547.455L306.623 531.123L320.859 469.48H343.479L313.488 576H292.242L279.379 513.707L275.621 493.111L271.863 513.707L259 576H238.332L208.125 469.48H231.756ZM378.021 535.748H405.049L391.752 493.834L378.021 535.748ZM379.395 469.48H404.543L442.266 576H418.129L411.264 554.104H372.023L364.652 576H341.383L379.395 469.48ZM471.967 543.119C472.641 547.985 473.966 551.622 475.941 554.031C479.555 558.415 485.745 560.607 494.514 560.607C499.765 560.607 504.029 560.029 507.305 558.873C513.52 556.657 516.627 552.538 516.627 546.516C516.627 542.999 515.085 540.277 512.002 538.35C508.919 536.471 504.077 534.809 497.477 533.363L486.203 530.834C475.122 528.329 467.462 525.607 463.223 522.668C456.044 517.754 452.455 510.07 452.455 499.615C452.455 490.076 455.924 482.151 462.861 475.84C469.799 469.529 479.988 466.373 493.43 466.373C504.655 466.373 514.218 469.36 522.119 475.334C530.068 481.26 534.236 489.883 534.621 501.205H513.23C512.845 494.798 510.051 490.245 504.848 487.547C501.379 485.764 497.067 484.873 491.912 484.873C486.179 484.873 481.602 486.029 478.182 488.342C474.761 490.654 473.051 493.882 473.051 498.025C473.051 501.831 474.737 504.674 478.109 506.553C480.277 507.805 484.902 509.275 491.984 510.961L510.34 515.369C518.385 517.296 524.456 519.874 528.551 523.102C534.91 528.112 538.09 535.363 538.09 544.854C538.09 554.585 534.356 562.679 526.889 569.135C519.469 575.542 508.967 578.746 495.381 578.746C481.506 578.746 470.594 575.59 462.645 569.279C454.695 562.92 450.721 554.2 450.721 543.119H471.967ZM554.422 576V469.48H576.463V510.094H618.088V469.48H640.201V576H618.088V528.449H576.463V576H554.422ZM681.898 576H659.785V469.48H681.898V576ZM702.35 469.48H725.691L768.111 543.842V469.48H788.852V576H766.594L723.09 500.338V576H702.35V469.48ZM881.279 502.723C879.593 495.448 875.474 490.365 868.922 487.475C865.26 485.885 861.189 485.09 856.709 485.09C848.133 485.09 841.076 488.342 835.535 494.846C830.043 501.301 827.297 511.033 827.297 524.041C827.297 537.145 830.284 546.419 836.258 551.863C842.232 557.307 849.025 560.029 856.637 560.029C864.104 560.029 870.223 557.885 874.992 553.598C879.762 549.262 882.701 543.601 883.809 536.615H859.166V518.838H903.537V576H888.795L886.555 562.703C882.267 567.762 878.413 571.327 874.992 573.398C869.115 577.012 861.888 578.818 853.312 578.818C839.197 578.818 827.634 573.928 818.625 564.148C809.23 554.32 804.533 540.879 804.533 523.824C804.533 506.577 809.279 492.75 818.77 482.344C828.26 471.938 840.811 466.734 856.42 466.734C869.958 466.734 880.822 470.179 889.012 477.068C897.25 483.91 901.971 492.461 903.176 502.723H881.279ZM1002.25 469.48V488.342H970.383V576H947.98V488.342H915.967V469.48H1002.25ZM1059.85 560.102C1068.66 560.102 1075.65 556.85 1080.8 550.346C1086.01 543.842 1088.61 534.592 1088.61 522.596C1088.61 510.648 1086.01 501.422 1080.8 494.918C1075.65 488.366 1068.66 485.09 1059.85 485.09C1051.03 485.09 1044 488.342 1038.75 494.846C1033.49 501.35 1030.87 510.6 1030.87 522.596C1030.87 534.592 1033.49 543.842 1038.75 550.346C1044 556.85 1051.03 560.102 1059.85 560.102ZM1110.87 522.596C1110.87 541.722 1105.5 556.368 1094.75 566.533C1086.71 574.82 1075.07 578.963 1059.85 578.963C1044.62 578.963 1032.99 574.82 1024.94 566.533C1014.15 556.368 1008.76 541.722 1008.76 522.596C1008.76 503.084 1014.15 488.438 1024.94 478.658C1032.99 470.372 1044.62 466.229 1059.85 466.229C1075.07 466.229 1086.71 470.372 1094.75 478.658C1105.5 488.438 1110.87 503.084 1110.87 522.596ZM1127.56 469.48H1150.9L1193.32 543.842V469.48H1214.06V576H1191.8L1148.3 500.338V576H1127.56V469.48ZM1292.18 543.119C1292.86 547.985 1294.18 551.622 1296.16 554.031C1299.77 558.415 1305.96 560.607 1314.73 560.607C1319.98 560.607 1324.24 560.029 1327.52 558.873C1333.73 556.657 1336.84 552.538 1336.84 546.516C1336.84 542.999 1335.3 540.277 1332.22 538.35C1329.13 536.471 1324.29 534.809 1317.69 533.363L1306.42 530.834C1295.34 528.329 1287.68 525.607 1283.44 522.668C1276.26 517.754 1272.67 510.07 1272.67 499.615C1272.67 490.076 1276.14 482.151 1283.08 475.84C1290.01 469.529 1300.2 466.373 1313.64 466.373C1324.87 466.373 1334.43 469.36 1342.33 475.334C1350.28 481.26 1354.45 489.883 1354.84 501.205H1333.45C1333.06 494.798 1330.27 490.245 1325.06 487.547C1321.59 485.764 1317.28 484.873 1312.13 484.873C1306.39 484.873 1301.82 486.029 1298.4 488.342C1294.98 490.654 1293.27 493.882 1293.27 498.025C1293.27 501.831 1294.95 504.674 1298.32 506.553C1300.49 507.805 1305.12 509.275 1312.2 510.961L1330.55 515.369C1338.6 517.296 1344.67 519.874 1348.77 523.102C1355.12 528.112 1358.3 535.363 1358.3 544.854C1358.3 554.585 1354.57 562.679 1347.1 569.135C1339.68 575.542 1329.18 578.746 1315.6 578.746C1301.72 578.746 1290.81 575.59 1282.86 569.279C1274.91 562.92 1270.94 554.2 1270.94 543.119H1292.18ZM1421.68 560.102C1424.24 560.102 1426.69 559.788 1429.05 559.162C1430.35 558.825 1432.02 558.223 1434.04 557.355L1423.27 547.094L1434.76 535.098L1445.53 545.359C1447.22 541.891 1448.4 538.855 1449.07 536.254C1450.13 532.352 1450.66 527.799 1450.66 522.596C1450.66 510.648 1448.2 501.422 1443.29 494.918C1438.42 488.366 1431.29 485.09 1421.9 485.09C1413.08 485.09 1406.05 488.221 1400.8 494.484C1395.55 500.747 1392.92 510.118 1392.92 522.596C1392.92 537.193 1396.68 547.648 1404.19 553.959C1409.06 558.054 1414.89 560.102 1421.68 560.102ZM1472.92 521.006C1472.92 530.497 1471.76 538.446 1469.45 544.854C1467.57 550.972 1464.8 556.055 1461.14 560.102L1473.42 571.592L1461.79 583.732L1448.93 571.592C1445.02 573.952 1441.65 575.615 1438.81 576.578C1434.04 578.168 1428.33 578.963 1421.68 578.963C1407.81 578.963 1396.34 574.82 1387.28 566.533C1376.3 556.561 1370.81 541.915 1370.81 522.596C1370.81 503.132 1376.44 488.414 1387.72 478.441C1396.92 470.299 1408.36 466.229 1422.04 466.229C1435.82 466.229 1447.38 470.54 1456.73 479.164C1467.52 489.137 1472.92 503.084 1472.92 521.006ZM1547.28 543.119C1547.95 547.985 1549.28 551.622 1551.25 554.031C1554.87 558.415 1561.06 560.607 1569.83 560.607C1575.08 560.607 1579.34 560.029 1582.62 558.873C1588.83 556.657 1591.94 552.538 1591.94 546.516C1591.94 542.999 1590.4 540.277 1587.31 538.35C1584.23 536.471 1579.39 534.809 1572.79 533.363L1561.52 530.834C1550.43 528.329 1542.77 525.607 1538.54 522.668C1531.36 517.754 1527.77 510.07 1527.77 499.615C1527.77 490.076 1531.24 482.151 1538.17 475.84C1545.11 469.529 1555.3 466.373 1568.74 466.373C1579.97 466.373 1589.53 469.36 1597.43 475.334C1605.38 481.26 1609.55 489.883 1609.93 501.205H1588.54C1588.16 494.798 1585.36 490.245 1580.16 487.547C1576.69 485.764 1572.38 484.873 1567.22 484.873C1561.49 484.873 1556.91 486.029 1553.49 488.342C1550.07 490.654 1548.36 493.882 1548.36 498.025C1548.36 501.831 1550.05 504.674 1553.42 506.553C1555.59 507.805 1560.21 509.275 1567.3 510.961L1585.65 515.369C1593.7 517.296 1599.77 519.874 1603.86 523.102C1610.22 528.112 1613.4 535.363 1613.4 544.854C1613.4 554.585 1609.67 562.679 1602.2 569.135C1594.78 575.542 1584.28 578.746 1570.69 578.746C1556.82 578.746 1545.91 575.59 1537.96 569.279C1530.01 562.92 1526.03 554.2 1526.03 543.119H1547.28Z" fill="#9B670E"/>
</svg>
