<svg width="1680" height="1050" viewBox="0 0 1680 1050" fill="none" xmlns="http://www.w3.org/2000/svg">
<path d="M77.3965 113.453H65.5449V136H45.3828V113.453H3.90234V95.459L42.4199 31.8652H65.5449V97.3379H77.3965V113.453ZM45.3828 97.3379V52.0996L19.1504 97.3379H45.3828ZM108.037 84.6191C108.037 96.6634 109.025 105.889 111 112.297C112.975 118.656 117.022 121.836 123.141 121.836C129.259 121.836 133.258 118.656 135.137 112.297C137.064 105.889 138.027 96.6634 138.027 84.6191C138.027 71.9967 137.064 62.6504 135.137 56.5801C133.258 50.5098 129.259 47.4746 123.141 47.4746C117.022 47.4746 112.975 50.5098 111 56.5801C109.025 62.6504 108.037 71.9967 108.037 84.6191ZM123.141 30.4922C136.486 30.4922 145.832 35.1895 151.18 44.584C156.576 53.9785 159.273 67.3236 159.273 84.6191C159.273 101.915 156.576 115.236 151.18 124.582C145.832 133.928 136.486 138.602 123.141 138.602C109.796 138.602 100.425 133.928 95.0293 124.582C89.6816 115.236 87.0078 101.915 87.0078 84.6191C87.0078 67.3236 89.6816 53.9785 95.0293 44.584C100.425 35.1895 109.796 30.4922 123.141 30.4922ZM242.162 113.453H230.311V136H210.148V113.453H168.668V95.459L207.186 31.8652H230.311V97.3379H242.162V113.453ZM210.148 97.3379V52.0996L183.916 97.3379H210.148ZM313.633 102.83C313.633 108.467 315.15 113.068 318.186 116.633C321.221 120.198 325.075 121.98 329.748 121.98C334.325 121.98 337.914 120.27 340.516 116.85C343.165 113.381 344.49 108.9 344.49 103.408C344.49 97.2897 342.997 92.6165 340.01 89.3887C337.023 86.1126 333.361 84.4746 329.025 84.4746C325.508 84.4746 322.401 85.5345 319.703 87.6543C315.656 90.7858 313.633 95.8444 313.633 102.83ZM342.611 57.5918C342.611 55.9056 341.961 54.0508 340.66 52.0273C338.444 48.7513 335.096 47.1133 330.615 47.1133C323.919 47.1133 319.149 50.8711 316.307 58.3867C314.765 62.5299 313.705 68.6484 313.127 76.7422C315.68 73.707 318.643 71.4909 322.016 70.0938C325.388 68.6966 329.242 67.998 333.578 67.998C342.876 67.998 350.488 71.1536 356.414 77.4648C362.388 83.776 365.375 91.8457 365.375 101.674C365.375 111.454 362.46 120.077 356.631 127.545C350.801 135.012 341.744 138.746 329.459 138.746C316.258 138.746 306.527 133.23 300.264 122.197C295.398 113.574 292.965 102.445 292.965 88.8105C292.965 80.8132 293.302 74.3092 293.977 69.2988C295.181 60.3861 297.518 52.9668 300.986 47.041C303.973 41.9824 307.876 37.9115 312.693 34.8281C317.559 31.7448 323.365 30.2031 330.109 30.2031C339.841 30.2031 347.598 32.7083 353.379 37.7188C359.16 42.681 362.412 49.3053 363.135 57.5918H342.611ZM459.393 29.4805V48.3418H427.523V136H405.121V48.3418H373.107V29.4805H459.393ZM472.328 136V29.4805H494.369V70.0938H535.994V29.4805H558.107V136H535.994V88.4492H494.369V136H472.328ZM644.248 95.748H671.275L657.979 53.834L644.248 95.748ZM645.621 29.4805H670.77L708.492 136H684.355L677.49 114.104H638.25L630.879 136H607.609L645.621 29.4805ZM773.459 29.4805H796.584L760.234 136H739.205L703.217 29.4805H726.992L750.117 110.346L773.459 29.4805ZM888.578 48.3418H832.211V70.9609H883.953V89.4609H832.211V116.85H891.18V136H810.459V29.4805H888.578V48.3418Z" fill="#333333"/>
</svg>
