<svg width="1680" height="1050" viewBox="0 0 1680 1050" fill="none" xmlns="http://www.w3.org/2000/svg">
<path d="M77.3965 553.453H65.5449V576H45.3828V553.453H3.90234V535.459L42.4199 471.865H65.5449V537.338H77.3965V553.453ZM45.3828 537.338V492.1L19.1504 537.338H45.3828ZM108.037 524.619C108.037 536.663 109.025 545.889 111 552.297C112.975 558.656 117.022 561.836 123.141 561.836C129.259 561.836 133.258 558.656 135.137 552.297C137.064 545.889 138.027 536.663 138.027 524.619C138.027 511.997 137.064 502.65 135.137 496.58C133.258 490.51 129.259 487.475 123.141 487.475C117.022 487.475 112.975 490.51 111 496.58C109.025 502.65 108.037 511.997 108.037 524.619ZM123.141 470.492C136.486 470.492 145.832 475.189 151.18 484.584C156.576 493.979 159.273 507.324 159.273 524.619C159.273 541.915 156.576 555.236 151.18 564.582C145.832 573.928 136.486 578.602 123.141 578.602C109.796 578.602 100.425 573.928 95.0293 564.582C89.6816 555.236 87.0078 541.915 87.0078 524.619C87.0078 507.324 89.6816 493.979 95.0293 484.584C100.425 475.189 109.796 470.492 123.141 470.492ZM242.162 553.453H230.311V576H210.148V553.453H168.668V535.459L207.186 471.865H230.311V537.338H242.162V553.453ZM210.148 537.338V492.1L183.916 537.338H210.148ZM313.633 542.83C313.633 548.467 315.15 553.068 318.186 556.633C321.221 560.198 325.075 561.98 329.748 561.98C334.325 561.98 337.914 560.27 340.516 556.85C343.165 553.381 344.49 548.9 344.49 543.408C344.49 537.29 342.997 532.617 340.01 529.389C337.023 526.113 333.361 524.475 329.025 524.475C325.508 524.475 322.401 525.535 319.703 527.654C315.656 530.786 313.633 535.844 313.633 542.83ZM342.611 497.592C342.611 495.906 341.961 494.051 340.66 492.027C338.444 488.751 335.096 487.113 330.615 487.113C323.919 487.113 319.149 490.871 316.307 498.387C314.765 502.53 313.705 508.648 313.127 516.742C315.68 513.707 318.643 511.491 322.016 510.094C325.388 508.697 329.242 507.998 333.578 507.998C342.876 507.998 350.488 511.154 356.414 517.465C362.388 523.776 365.375 531.846 365.375 541.674C365.375 551.454 362.46 560.077 356.631 567.545C350.801 575.012 341.744 578.746 329.459 578.746C316.258 578.746 306.527 573.23 300.264 562.197C295.398 553.574 292.965 542.445 292.965 528.811C292.965 520.813 293.302 514.309 293.977 509.299C295.181 500.386 297.518 492.967 300.986 487.041C303.973 481.982 307.876 477.911 312.693 474.828C317.559 471.745 323.365 470.203 330.109 470.203C339.841 470.203 347.598 472.708 353.379 477.719C359.16 482.681 362.412 489.305 363.135 497.592H342.611ZM459.393 469.48V488.342H427.523V576H405.121V488.342H373.107V469.48H459.393ZM472.328 576V469.48H494.369V510.094H535.994V469.48H558.107V576H535.994V528.449H494.369V576H472.328ZM644.248 535.748H671.275L657.979 493.834L644.248 535.748ZM645.621 469.48H670.77L708.492 576H684.355L677.49 554.104H638.25L630.879 576H607.609L645.621 469.48ZM773.459 469.48H796.584L760.234 576H739.205L703.217 469.48H726.992L750.117 550.346L773.459 469.48ZM888.578 488.342H832.211V510.961H883.953V529.461H832.211V556.85H891.18V576H810.459V469.48H888.578V488.342Z" fill="#9B670E"/>
</svg>
